<svg xmlns="http://www.w3.org/2000/svg" width="40" height="40" viewBox="0 0 40 40">
    <g fill="none" fill-rule="evenodd">
        <g>
            <g transform="translate(-323 -1127) translate(323 1127)">
                <rect width="40" height="40" fill="#EB7054" rx="20"/>
                <g>
                    <path d="M0 0H20V20H0z" transform="translate(10 10)"/>
                    <path fill="#FFF" d="M16.222 2.081c.48-.135.994 0 1.346.351.352.352.486.867.35 1.346l-4.105 14.557c-.156.551-.637.949-1.208.997-.572.047-1.113-.264-1.358-.782l-3.15-6.648-6.647-3.15c-.481-.227-.784-.71-.786-1.235l.004-.122c.048-.57.446-1.052.997-1.208zm.192 1.504L2.394 7.539l6.11 2.895 3.162-3.161c.293-.293.768-.293 1.061 0 .269.268.29.69.067.984l-.067.077-3.162 3.161 2.895 6.11 3.954-14.02z" transform="translate(10 10)"/>
                </g>
            </g>
        </g>
    </g>
</svg>
