<svg xmlns="http://www.w3.org/2000/svg" width="20" height="20" viewBox="0 0 20 20">
    <g fill="none" fill-rule="evenodd">
        <g>
            <g>
                <path d="M0 0L20 0 20 20 0 20z" transform="translate(-16 -154) translate(16 154)"/>
                <path fill="#ACACBB" d="M10.005 1.833c3.685 0 6.672 2.987 6.672 6.672 0 2.277-1.91 5.545-5.733 9.803l-.323.357c-.017.02-.035.038-.055.055-.312.285-.78.287-1.095.024l-.082-.079-.323-.357-.636-.72c-3.398-3.908-5.097-6.936-5.097-9.083 0-3.685 2.987-6.672 6.672-6.672zm0 1.667C7.241 3.5 5 5.74 5 8.505c0 1.64 1.55 4.383 4.71 8.015l.295.336.264-.3.285-.33.543-.644c.175-.211.344-.42.508-.624l.471-.603c1.893-2.472 2.86-4.402 2.93-5.701l.005-.149c0-2.764-2.241-5.005-5.006-5.005zM10 6.833c.92 0 1.667.747 1.667 1.667S10.92 10.167 10 10.167 8.333 9.42 8.333 8.5 9.08 6.833 10 6.833z" transform="translate(-16 -154) translate(16 154)"/>
            </g>
        </g>
    </g>
</svg>
