<svg xmlns="http://www.w3.org/2000/svg" width="16" height="16" viewBox="0 0 16 16">
    <g fill="none" fill-rule="evenodd">
        <g>
            <g>
                <path d="M0 0L16 0 16 16 0 16z" transform="translate(-16 -337) translate(16 337)"/>
                <path fill="#ACACBB" d="M8.004 1.467c2.948 0 5.338 2.39 5.338 5.337 0 1.822-1.529 4.436-4.587 7.843l-.258.285c-.014.016-.029.03-.044.044-.25.228-.625.23-.876.02l-.066-.064-.258-.285-.51-.577c-2.717-3.126-4.076-5.548-4.076-7.266 0-2.948 2.39-5.337 5.337-5.337zm0 1.333C5.793 2.8 4 4.593 4 6.804c0 1.312 1.24 3.506 3.768 6.412l.236.269.211-.24.228-.264.435-.515c.14-.17.275-.336.406-.5l.377-.482c1.514-1.978 2.288-3.522 2.344-4.561l.003-.119c0-2.211-1.792-4.004-4.004-4.004zM8 5.467c.736 0 1.333.597 1.333 1.333S8.736 8.133 8 8.133 6.667 7.536 6.667 6.8 7.264 5.467 8 5.467z" transform="translate(-16 -337) translate(16 337)"/>
            </g>
        </g>
    </g>
</svg>
