<svg xmlns="http://www.w3.org/2000/svg" width="48" height="48" viewBox="0 0 48 48">
    <g fill="none" fill-rule="evenodd">
        <g>
            <g transform="translate(-16 -318) translate(16 318)">
                <circle cx="24" cy="24" r="24" fill="#EB7156"/>
                <g fill="#FFF">
                    <g>
                        <path d="M1.37 12c-.223 0-.428-.116-.538-.302-.11-.187-.11-.416.003-.601C1.348 10.245 3.43 8.686 3.43 6v-.6c-.002-1.437.59-2.816 1.644-3.83C6.127.556 7.556-.009 9.043 0c3.071.022 5.528 2.49 5.528 5.468V6c0 2.686 2.082 4.245 2.594 5.097.112.185.113.414.003.6-.11.187-.315.302-.537.303H12v.6c0 1.325-1.343 2.4-3 2.4s-3-1.075-3-2.4V12H1.37z" transform="translate(15 16) translate(0 .5)"/>
                    </g>
                </g>
            </g>
        </g>
    </g>
</svg>
