<svg xmlns="http://www.w3.org/2000/svg" width="120" height="120" viewBox="0 0 120 120">
    <g fill="none" fill-rule="evenodd">
        <g>
            <g>
                <path d="M0 0H120V120H0z" transform="translate(-128 -193) translate(128 193)"/>
                <path fill="#F6F6F7" fill-rule="nonzero" d="M54.375 9C79.435 9 99.75 29.315 99.75 54.375c0 10.368-3.477 19.924-9.33 27.565l18.82 18.818c2.343 2.343 2.343 6.142 0 8.485-2.283 2.283-5.948 2.342-8.302.176l-.183-.176-18.82-18.82c-7.64 5.85-17.194 9.327-27.56 9.327C29.315 99.75 9 79.435 9 54.375S29.315 9 54.375 9zm0 12C35.942 21 21 35.942 21 54.375S35.942 87.75 54.375 87.75 87.75 72.808 87.75 54.375 72.808 21 54.375 21z" transform="translate(-128 -193) translate(128 193)"/>
            </g>
        </g>
    </g>
</svg>
