<svg xmlns="http://www.w3.org/2000/svg" xmlns:xlink="http://www.w3.org/1999/xlink" width="120" height="120" viewBox="0 0 120 120">
    <defs>
        <path id="if66etfrya" d="M113.073 6.064l.076.061.034.028c.114.095.225.194.33.299l.023.022.022.023c.104.105.203.214.297.327l.036.045c.988 1.216 1.423 2.893.888 4.613-.027.088-.056.176-.088.262l-34.972 99.917c-1.496 4.275-7.449 4.517-9.288.38L51.212 68.797 7.97 49.578c-4.138-1.838-3.895-7.792.38-9.288L108.265 5.32c.11-.04.221-.077.333-.11 1.663-.491 3.28-.08 4.474.855zm-15.03 22.973L60.964 66.116l13.483 30.338 23.596-67.417zm-7.071-7.071L23.556 45.563l30.336 13.483 37.08-37.08z"/>
    </defs>
    <g fill="none" fill-rule="evenodd">
        <g>
            <g>
                <g transform="translate(-124 -216) translate(84 216) translate(40)">
                    <path fill="#000" fill-opacity="0" d="M0 120L120 120 120 0 0 0z"/>
                    <use fill="#F6F6F7" fill-rule="nonzero" xlink:href="#if66etfrya"/>
                </g>
            </g>
        </g>
    </g>
</svg>
