<svg xmlns="http://www.w3.org/2000/svg" width="20" height="20" viewBox="0 0 20 20">
    <g fill="none" fill-rule="evenodd">
        <g>
            <g>
                <path d="M0 0H20V20H0z" transform="translate(-160 -417) translate(160 417)"/>
                <path fill="#28282D" d="M6.325 1.91c.552-.067 1.081.239 1.299.75l1.568 3.66c.165.386.127.827-.103 1.178l-1.3 1.986.028.054c.58 1.151 1.516 2.083 2.665 2.655l.059.03 1.956-1.305c.351-.235.797-.275 1.185-.11l3.658 1.568c.511.218.817.747.75 1.303-.279 2.184-2.138 3.821-4.34 3.821C7.537 17.5 2.5 12.463 2.5 6.25c0-2.202 1.637-4.061 3.825-4.34zm.149 1.24l-.041.006C4.896 3.376 3.75 4.693 3.75 6.25c0 5.523 4.477 10 10 10 1.573 0 2.9-1.17 3.1-2.725v.001l-3.66-1.568-1.953 1.302c-.364.246-.832.281-1.233.091-1.455-.703-2.63-1.874-3.343-3.33-.19-.394-.157-.86.083-1.222l1.3-1.986-1.57-3.663zm5.496 1.787c1.509.406 2.687 1.584 3.093 3.093.09.334-.108.677-.441.766-.333.09-.676-.108-.766-.441-.29-1.079-1.132-1.921-2.211-2.211-.333-.09-.53-.433-.441-.766.09-.333.432-.53.766-.441zm.647-2.416c2.371.638 4.224 2.49 4.862 4.862.09.334-.108.676-.442.766-.333.09-.676-.108-.766-.441-.522-1.941-2.038-3.457-3.979-3.98-.333-.09-.53-.432-.441-.765.09-.334.432-.531.766-.442z" transform="translate(-160 -417) translate(160 417)"/>
            </g>
        </g>
    </g>
</svg>
