<svg xmlns="http://www.w3.org/2000/svg" width="20" height="20" viewBox="0 0 20 20">
    <g fill="none" fill-rule="evenodd">
        <g>
            <g>
                <path d="M0 0H20V20H0z" transform="translate(-154 -479) translate(154 479)"/>
                <path fill="#FFF" d="M9.998 4.04l-.085-.1C8.777 2.66 7.028 2.04 5.289 2.387 3 2.845 1.355 4.854 1.354 7.187c0 2.616 1.582 5.116 4.182 7.456.886.797 1.832 1.52 2.778 2.157.248.167.484.32.703.457l.394.24.182.105c.253.142.561.142.814 0l.182-.105.18-.108c.278-.17.586-.366.917-.59.946-.636 1.892-1.359 2.778-2.156 2.6-2.34 4.182-4.84 4.182-7.456 0-2.333-1.647-4.342-3.935-4.8-1.749-.35-3.502.28-4.632 1.558L10 4.04zm4.386-.019c1.509.303 2.595 1.628 2.595 3.167 0 2.032-1.348 4.162-3.63 6.216-.823.74-1.709 1.417-2.594 2.013l-.227.152-.428.274-.1.061-.1-.061-.428-.274-.227-.152c-.885-.596-1.77-1.272-2.594-2.013-2.282-2.054-3.63-4.184-3.63-6.216 0-1.54 1.086-2.864 2.595-3.167 1.456-.291 2.923.448 3.555 1.787l.069.154c.298.666 1.247.653 1.529-.02.593-1.419 2.106-2.223 3.615-1.92z" transform="translate(-154 -479) translate(154 479)"/>
            </g>
        </g>
    </g>
</svg>
