<svg xmlns="http://www.w3.org/2000/svg" width="24" height="24" viewBox="0 0 24 24">
    <g fill="none" fill-rule="evenodd">
        <g>
            <g>
                <g>
                    <path d="M0 0H24V24H0z" transform="translate(-326 -841) translate(86 774) translate(240 67)"/>
                    <path fill="#141415" d="M16.5 1.45c2.099 0 3.8 1.701 3.8 3.8 0 2.099-1.701 3.8-3.8 3.8-1.052 0-2.004-.427-2.692-1.118l-4.25 2.731c.157.416.242.867.242 1.337s-.085.921-.242 1.337l4.25 2.73c.688-.69 1.64-1.117 2.692-1.117 2.099 0 3.8 1.701 3.8 3.8 0 2.099-1.701 3.8-3.8 3.8-2.099 0-3.8-1.701-3.8-3.8 0-.47.085-.921.242-1.337l-4.25-2.732C8.006 15.372 7.053 15.8 6 15.8c-2.099 0-3.8-1.701-3.8-3.8 0-2.099 1.701-3.8 3.8-3.8 1.052 0 2.005.428 2.693 1.119l4.249-2.732c-.157-.416-.242-.867-.242-1.337 0-2.099 1.701-3.8 3.8-3.8zm0 15.1c-1.215 0-2.2.985-2.2 2.2 0 1.215.985 2.2 2.2 2.2 1.215 0 2.2-.985 2.2-2.2 0-1.215-.985-2.2-2.2-2.2zM6 9.8c-1.215 0-2.2.985-2.2 2.2 0 1.215.985 2.2 2.2 2.2 1.215 0 2.2-.985 2.2-2.2 0-1.215-.985-2.2-2.2-2.2zm10.5-6.75c-1.215 0-2.2.985-2.2 2.2 0 1.215.985 2.2 2.2 2.2 1.215 0 2.2-.985 2.2-2.2 0-1.215-.985-2.2-2.2-2.2z" transform="translate(-326 -841) translate(86 774) translate(240 67)"/>
                </g>
            </g>
        </g>
    </g>
</svg>
