<svg xmlns="http://www.w3.org/2000/svg" width="24" height="24" viewBox="0 0 24 24">
    <g fill="none" fill-rule="evenodd">
        <g>
            <g>
                <g>
                    <path fill="#FFF" fill-opacity="0" d="M0 0H24V24H0z" transform="translate(-326 -3051) translate(0 3042) translate(326 9)"/>
                    <path fill="#CBCBD7" d="M15.244 16c3.876 0 7.099 3.02 7.756 6.999h-1.894l-.018-.083c-.638-2.752-2.903-4.808-5.628-4.912L15.244 18H8.756c-2.82 0-5.189 2.092-5.844 4.916l-.02.083H1C1.657 19.02 4.88 16 8.756 16h6.488zM12 2c3.314 0 6 2.686 6 6s-2.686 6-6 6-6-2.686-6-6 2.686-6 6-6zm0 2C9.79 4 8 5.79 8 8s1.79 4 4 4 4-1.79 4-4-1.79-4-4-4z" transform="translate(-326 -3051) translate(0 3042) translate(326 9)"/>
                </g>
            </g>
        </g>
    </g>
</svg>
