<svg xmlns="http://www.w3.org/2000/svg" width="12" height="12" viewBox="0 0 12 12">
    <g fill="none" fill-rule="evenodd">
        <g>
            <g>
                <path d="M0 0H12V12H0z" transform="translate(-347 -310) translate(347 310)"/>
                <path fill="#ACACBB" d="M3.172 2.464L6 5.293l2.828-2.829c.196-.195.512-.195.708 0 .195.196.195.512 0 .708L6.707 6l2.829 2.828c.195.196.195.512 0 .708-.196.195-.512.195-.708 0L6 6.707 3.172 9.536c-.196.195-.512.195-.708 0-.195-.196-.195-.512 0-.708L5.293 6 2.464 3.172c-.195-.196-.195-.512 0-.708.196-.195.512-.195.708 0z" transform="translate(-347 -310) translate(347 310)"/>
            </g>
        </g>
    </g>
</svg>
