<svg xmlns="http://www.w3.org/2000/svg" width="20" height="20" viewBox="0 0 20 20">
    <g fill="none" fill-rule="evenodd">
        <g>
            <g>
                <path d="M0 0H20V20H0z" transform="translate(-36 -417) translate(36 417)"/>
                <path fill="#28282D" d="M10 1.875c4.487 0 8.125 3.638 8.125 8.125 0 .942-.16 1.847-.455 2.688l-.007.019c-1.115 3.156-4.125 5.418-7.663 5.418-4.487 0-8.125-3.638-8.125-8.125 0-.942.16-1.847.455-2.688l.007-.019C3.452 4.137 6.462 1.875 10 1.875zm2.186 11.252H7.814c.14.66.327 1.264.55 1.788C8.86 16.07 9.47 16.674 10 16.674c.53 0 1.14-.604 1.635-1.76.224-.523.41-1.127.551-1.787zm-5.65-.001H3.874c.812 1.588 2.223 2.818 3.935 3.393-.572-.845-1.01-2.021-1.275-3.393zm9.59 0h-2.661c-.265 1.372-.703 2.548-1.275 3.393 1.712-.575 3.123-1.805 3.935-3.393zm-9.777-5H3.384C3.215 8.72 3.125 9.35 3.125 10c0 .65.09 1.28.259 1.876h2.965c-.065-.603-.099-1.231-.099-1.876 0-.645.034-1.273.099-1.875zm6.043-.002H7.608C7.538 8.725 7.5 9.355 7.5 10c0 .645.037 1.275.109 1.877h4.782c.072-.602.109-1.232.109-1.877s-.037-1.275-.108-1.876zm4.224.001h-2.965c.065.602.099 1.23.099 1.875s-.034 1.273-.099 1.876h2.965c.169-.596.259-1.226.259-1.876 0-.65-.09-1.279-.259-1.875zM7.81 3.481l-.068.023C6.06 4.09 4.675 5.308 3.874 6.875h2.66c.265-1.372.704-2.549 1.276-3.394zM10 3.326c-.53 0-1.14.604-1.635 1.76-.225.523-.41 1.128-.551 1.788h4.372c-.14-.66-.326-1.265-.55-1.789C11.14 3.93 10.53 3.326 10 3.326zm2.19.155l.087.134c.53.833.937 1.959 1.188 3.26h2.66c-.811-1.588-2.223-2.819-3.935-3.394z" transform="translate(-36 -417) translate(36 417)"/>
            </g>
        </g>
    </g>
</svg>
