<svg xmlns="http://www.w3.org/2000/svg" width="20" height="20" viewBox="0 0 20 20">
    <g fill="none" fill-rule="evenodd">
        <g>
            <g>
                <g>
                    <path d="M0 0H20V20H0z" transform="translate(-313 -257) translate(32 247) translate(281 10)"/>
                    <path fill="#878794" d="M15.893 4.107c.325.326.325.854 0 1.179l-4.715 4.713 4.715 4.715c.325.325.325.853 0 1.179-.326.325-.854.325-1.179 0l-4.715-4.715-4.713 4.715c-.325.325-.853.325-1.179 0-.325-.326-.325-.854 0-1.179l4.714-4.715-4.714-4.713c-.325-.325-.325-.853 0-1.179.326-.325.854-.325 1.179 0l4.713 4.714 4.715-4.714c.325-.325.853-.325 1.179 0z" transform="translate(-313 -257) translate(32 247) translate(281 10)"/>
                </g>
            </g>
        </g>
    </g>
</svg>
