<svg xmlns="http://www.w3.org/2000/svg" width="24" height="24" viewBox="0 0 24 24">
    <g fill="none" fill-rule="evenodd">
        <g>
            <g>
                <g>
                    <path fill="#FFF" fill-opacity="0" d="M0 0H24V24H0z" transform="translate(-251 -3075) translate(0 3066) translate(251 9)"/>
                    <path fill="#CBCBD7" d="M18 2c2.761 0 5 2.239 5 5v7c0 2.761-2.239 5-5 5h-1.5l-2.1 2.8c-.128.17-.274.327-.434.466l-.166.134c-1.275.956-3.062.744-4.081-.452L9.6 21.8 7.5 19H6c-2.761 0-5-2.239-5-5V7c0-2.761 2.239-5 5-5h12zm0 2H6C4.402 4 3.096 5.249 3.005 6.824L3 7v7c0 1.598 1.249 2.904 2.824 2.995L6 17h2.5l2.662 3.55.079.1c.311.366.839.454 1.207.255l.096-.061.111-.089.077-.073.068-.082 2.7-3.6H18c1.598 0 2.904-1.249 2.995-2.824L21 14V7c0-1.598-1.249-2.904-2.824-2.995L18 4zM8 10c.552 0 1 .448 1 1s-.448 1-1 1-1-.448-1-1 .448-1 1-1zm4 0c.552 0 1 .448 1 1s-.448 1-1 1-1-.448-1-1 .448-1 1-1zm4 0c.552 0 1 .448 1 1s-.448 1-1 1-1-.448-1-1 .448-1 1-1z" transform="translate(-251 -3075) translate(0 3066) translate(251 9)"/>
                </g>
            </g>
        </g>
    </g>
</svg>
