<svg xmlns="http://www.w3.org/2000/svg" xmlns:xlink="http://www.w3.org/1999/xlink" width="24" height="24" viewBox="0 0 24 24">
    <defs>
        <path id="09ohg15sxa" d="M20.91 13H21c.552 0 1-.448 1-1s-.448-1-1-1h-.174c-1.056-.004-2.01-.635-2.425-1.606-.036-.085-.06-.173-.073-.264-.33-.945-.101-2.005.615-2.737l.06-.06c.188-.188.294-.443.294-.708 0-.265-.106-.52-.294-.708-.188-.188-.443-.294-.708-.294-.265 0-.52.106-.708.294l-.068.068c-.774.757-1.932.967-2.913.534-.97-.416-1.602-1.369-1.606-2.429V3c0-.552-.448-1-1-1s-1 .448-1 1v.174c-.004 1.056-.635 2.01-1.606 2.425-.085.036-.173.06-.264.073-.945.33-2.005.101-2.737-.615l-.06-.06c-.188-.188-.443-.294-.708-.294-.265 0-.52.106-.708.294-.188.188-.294.443-.294.708 0 .265.106.52.294.708l.068.068c.757.774.967 1.932.554 2.864-.376 1.021-1.338 1.71-2.449 1.735H3c-.552 0-1 .448-1 1s.448 1 1 1h.174c1.056.004 2.01.635 2.42 1.596.438.991.228 2.149-.537 2.931l-.06.06c-.188.188-.294.443-.294.708 0 .265.106.52.294.708.188.188.443.294.708.294.265 0 .52-.106.708-.294l.068-.068c.774-.757 1.932-.967 2.864-.554 1.021.376 1.71 1.338 1.735 2.449V21c0 .552.448 1 1 1s1-.448 1-1v-.174c.004-1.056.635-2.01 1.596-2.42.991-.438 2.149-.228 2.931.537l.06.06c.188.188.443.294.708.294.265 0 .52-.106.708-.294.188-.188.294-.443.294-.708 0-.265-.106-.52-.294-.708l-.068-.068c-.756-.773-.967-1.928-.532-2.918.417-.968 1.369-1.597 2.427-1.601zM12 0c1.657 0 3 1.343 3 3v.086c.001.26.156.493.404.6.243.106.527.055.709-.123l.06-.06c.562-.563 1.326-.88 2.122-.88.796 0 1.56.317 2.122.88.563.562.88 1.326.88 2.122 0 .796-.317 1.56-.88 2.122l-.052.052c-.186.19-.237.474-.13.717.028.064.05.131.064.2.119.174.317.283.531.284H21c1.657 0 3 1.343 3 3s-1.343 3-3 3h-.086c-.26.001-.493.156-.595.394-.111.253-.06.537.118.719l.06.06c.563.562.88 1.326.88 2.122 0 .796-.317 1.56-.88 2.122-.562.563-1.326.88-2.122.88-.796 0-1.56-.317-2.122-.88l-.052-.052c-.19-.186-.474-.237-.727-.126-.238.102-.393.336-.394.591V21c0 1.657-1.343 3-3 3s-3-1.343-3-3c-.006-.333-.175-.57-.484-.685-.243-.107-.527-.056-.709.122l-.06.06c-.562.563-1.326.88-2.122.88-.796 0-1.56-.317-2.122-.88-.563-.562-.88-1.326-.88-2.122 0-.796.317-1.56.88-2.122l.052-.052c.186-.19.237-.474.126-.727-.102-.238-.336-.393-.591-.394H3c-1.657 0-3-1.343-3-3s1.343-3 3-3c.333-.006.57-.175.685-.484.107-.243.056-.527-.122-.709l-.06-.06c-.563-.562-.88-1.326-.88-2.122 0-.796.317-1.56.88-2.122.562-.563 1.326-.88 2.122-.88.796 0 1.56.317 2.122.88l.052.052c.19.186.474.237.717.13.064-.028.131-.05.2-.064.174-.119.283-.317.284-.531V3c0-1.657 1.343-3 3-3zm0 8c-2.21 0-4 1.79-4 4s1.79 4 4 4 4-1.79 4-4-1.79-4-4-4zm0 2c1.105 0 2 .895 2 2s-.895 2-2 2-2-.895-2-2 .895-2 2-2z"/>
    </defs>
    <g fill="none" fill-rule="evenodd">
        <g>
            <g transform="translate(-331 -20) translate(331 20)">
                <use fill="#ACACBB" xlink:href="#09ohg15sxa"/>
            </g>
        </g>
    </g>
</svg>
