<svg xmlns="http://www.w3.org/2000/svg" width="16" height="16" viewBox="0 0 16 16">
    <g fill="none" fill-rule="evenodd">
        <g>
            <g>
                <g>
                    <path d="M0 0H16V16H0z" transform="translate(-327 -89) translate(239 81) translate(88 8)"/>
                    <path fill="#28282D" d="M8 1.333c.368 0 .667.299.667.667v5.332L14 7.333c.368 0 .667.299.667.667 0 .368-.299.667-.667.667H8.666V14c0 .368-.298.667-.666.667-.368 0-.667-.299-.667-.667V8.666H2c-.368 0-.667-.298-.667-.666 0-.368.299-.667.667-.667h5.333V2c0-.368.299-.667.667-.667z" transform="translate(-327 -89) translate(239 81) translate(88 8)"/>
                </g>
            </g>
        </g>
    </g>
</svg>
