<svg xmlns="http://www.w3.org/2000/svg" width="48" height="48" viewBox="0 0 48 48">
    <g fill="none" fill-rule="evenodd">
        <g fill-rule="nonzero">
            <g>
                <g>
                    <path fill="#FFE812" d="M0 24C0 10.745 10.745 0 24 0s24 10.745 24 24-10.745 24-24 24S0 37.255 0 24z" transform="translate(-196 -329) translate(68 329) translate(128)"/>
                    <path fill="#381F1F" d="M24 11c-8.837 0-16 5.648-16 12.615 0 4.505 2.995 8.457 7.5 10.69-.245.844-1.575 5.437-1.628 5.797 0 0-.032.272.143.375.176.103.383.023.383.023.503-.07 5.837-3.817 6.76-4.468.922.13 1.872.199 2.842.199 8.837 0 16-5.648 16-12.616C40 16.648 32.837 11 24 11z" transform="translate(-196 -329) translate(68 329) translate(128)"/>
                    <path fill="#FFE812" d="M15.154 28.02c-.51 0-.923-.396-.923-.882v-5.484h-1.44c-.5 0-.906-.406-.906-.904s.406-.904.905-.904h4.727c.5 0 .906.406.906.904s-.406.904-.906.904h-1.44v5.484c0 .486-.414.881-.923.881zm8.094-.013c-.385 0-.68-.156-.768-.407l-.457-1.197h-2.815L18.75 27.6c-.089.251-.383.407-.768.407-.203 0-.403-.043-.587-.127-.254-.117-.499-.44-.219-1.31l2.208-5.813c.156-.442.628-.897 1.23-.91.603.013 1.075.468 1.23.911l2.208 5.81c.28.872.036 1.195-.218 1.312-.184.084-.385.127-.587.127zm-1.71-3.24l-.923-2.618-.922 2.619h1.844zm4 3.118c-.488 0-.884-.38-.884-.847V20.77c0-.509.422-.923.942-.923s.942.414.942.923v5.423H28.5c.488 0 .885.38.885.846 0 .467-.397.847-.885.847h-2.962zm5.129.122c-.51 0-.923-.414-.923-.923V20.77c0-.509.414-.923.923-.923.509 0 .923.414.923.923v1.984l2.575-2.575c.133-.133.315-.206.512-.206.23 0 .462.1.635.273.162.162.259.37.272.585.013.218-.06.418-.204.562l-2.104 2.104 2.273 3.01c.073.096.127.206.157.324.03.117.037.24.02.36-.017.12-.057.235-.118.34-.062.104-.143.196-.24.268-.16.122-.355.187-.556.187-.142 0-.284-.032-.412-.096s-.24-.157-.325-.271l-2.165-2.869-.32.32v2.015c0 .245-.098.48-.27.652-.174.174-.409.27-.653.271z" transform="translate(-196 -329) translate(68 329) translate(128)"/>
                </g>
            </g>
        </g>
    </g>
</svg>
