<svg xmlns="http://www.w3.org/2000/svg" width="24" height="24" viewBox="0 0 24 24">
    <g fill="none" fill-rule="evenodd">
        <g>
            <g>
                <path d="M0 0H24V24H0z" transform="translate(-319 -554) translate(319 554)"/>
                <path fill="#FFF" d="M12 2c.552 0 1 .448 1 1v8h8c.552 0 1 .448 1 1s-.448 1-1 1h-8v8c0 .552-.448 1-1 1s-1-.448-1-1v-8.001L3 13c-.552 0-1-.448-1-1s.448-1 1-1l8-.001V3c0-.552.448-1 1-1z" transform="translate(-319 -554) translate(319 554)"/>
            </g>
        </g>
    </g>
</svg>
