<svg xmlns="http://www.w3.org/2000/svg" xmlns:xlink="http://www.w3.org/1999/xlink" width="24" height="24" viewBox="0 0 24 24">
    <defs>
        <path id="r4kgmxf0ba" d="M9 20c1.105 0 2 .895 2 2s-.895 2-2 2-2-.895-2-2 .895-2 2-2zm11 0c1.105 0 2 .895 2 2s-.895 2-2 2-2-.895-2-2 .895-2 2-2zM5 1c.477 0 .887.336.98.804L6.82 6H23c.627 0 1.1.571.982 1.187l-1.601 8.398C22.098 17.01 20.834 18.028 19.4 18H9.7c-1.454.028-2.718-.99-3-2.414L5.028 7.24c-.007-.027-.013-.055-.017-.084L4.18 3H1c-.552 0-1-.448-1-1s.448-1 1-1h4z"/>
    </defs>
    <g fill="none" fill-rule="evenodd">
        <g>
            <g>
                <g transform="translate(-101 -619) translate(0 610) translate(101 9)">
                    <path fill="#000" fill-opacity="0" d="M0 24L24 24 24 0 0 0z"/>
                    <use fill="#EB7054" xlink:href="#r4kgmxf0ba"/>
                </g>
            </g>
        </g>
    </g>
</svg>
