<svg xmlns="http://www.w3.org/2000/svg" width="24" height="24" viewBox="0 0 24 24">
    <g fill="none" fill-rule="evenodd">
        <g>
            <g>
                <path d="M0 0H24V24H0z" transform="translate(-335 -16) translate(335 16)"/>
                <path fill="#141415" d="M11.998 4.848l-.103-.12c-1.363-1.536-3.461-2.282-5.548-1.864-2.746.55-4.722 2.961-4.722 5.76 0 3.14 1.898 6.14 5.019 8.947 1.063.957 2.198 1.824 3.333 2.589.298.2.58.383.844.548l.473.288.217.127c.304.17.674.17.978 0l.217-.127.217-.13c.333-.203.703-.439 1.1-.706 1.135-.765 2.27-1.632 3.333-2.589 3.12-2.808 5.019-5.807 5.019-8.946 0-2.8-1.976-5.21-4.722-5.76-2.098-.421-4.202.335-5.558 1.87l-.097.113zm5.263-.022c1.81.362 3.114 1.952 3.114 3.8 0 2.438-1.617 4.994-4.356 7.459-.988.889-2.05 1.7-3.113 2.416l-.273.181-.513.33-.12.073-.12-.074-.513-.329c-.09-.058-.18-.119-.273-.181-1.063-.716-2.125-1.527-3.113-2.416-2.739-2.465-4.356-5.02-4.356-7.46 0-1.847 1.304-3.437 3.114-3.8 1.748-.35 3.507.538 4.266 2.144l.083.185c.358.799 1.497.784 1.835-.023.711-1.703 2.527-2.668 4.338-2.305z" transform="translate(-335 -16) translate(335 16)"/>
            </g>
        </g>
    </g>
</svg>
