<svg xmlns="http://www.w3.org/2000/svg" width="32" height="32" viewBox="0 0 32 32">
    <g fill="none" fill-rule="evenodd">
        <g>
            <g>
                <path d="M0 0H32V32H0z" transform="translate(-54 -209) translate(54 209)"/>
                <path fill="#EB7054" d="M16 3.2c7.07 0 12.8 5.73 12.8 12.8S23.07 28.8 16 28.8 3.2 23.07 3.2 16 8.93 3.2 16 3.2zm0 1.6C9.814 4.8 4.8 9.814 4.8 16c0 6.186 5.014 11.2 11.2 11.2 6.186 0 11.2-5.014 11.2-11.2 0-6.186-5.014-11.2-11.2-11.2zM23 18c-.276 3.356-3.304 6-7 6s-6.724-2.644-7-6h14zm-2.449 1.8h-9.103l.092.141c.876 1.294 2.428 2.183 4.224 2.254L16 22.2c1.895 0 3.546-.91 4.46-2.259l.091-.141zm-6.283-7.86c.549.549.583 1.418.103 2.007l-.103.114-1.414 1.414c-.368.368-.88.504-1.354.41-.474.095-.986-.042-1.354-.41L8.732 14.06c-.586-.586-.586-1.536 0-2.122.586-.585 1.536-.585 2.122 0l.646.647.646-.647c.586-.585 1.536-.585 2.122 0zm9 0c.549.549.583 1.418.103 2.007l-.103.114-1.414 1.414c-.368.368-.88.504-1.354.41-.474.095-.986-.042-1.354-.41l-1.414-1.414c-.586-.586-.586-1.536 0-2.122.586-.585 1.536-.585 2.122 0l.646.647.646-.647c.586-.585 1.536-.585 2.122 0z" transform="translate(-54 -209) translate(54 209)"/>
            </g>
        </g>
    </g>
</svg>
