<svg xmlns="http://www.w3.org/2000/svg" width="24" height="24" viewBox="0 0 24 24">
    <g fill="none" fill-rule="evenodd">
        <g>
            <g>
                <path d="M0 0H24V24H0z" transform="translate(-24 -309) translate(24 309)"/>
                <path fill="#28282D" d="M12.94 2.265c.438.06.744.464.683.902-.06.438-.465.743-.902.682-2.66-.369-5.164 1.349-5.776 3.964-.612 2.614.868 5.265 3.416 6.115 2.547.85 5.322-.381 6.403-2.84.178-.404.65-.588 1.054-.41.405.178.588.65.41 1.054-.574 1.307-1.514 2.349-2.652 3.05 2.582.86 4.81 2.64 6.212 5.067.22.383.09.872-.293 1.093-.383.221-.872.09-1.093-.293-1.734-3-4.936-4.849-8.402-4.849-3.466 0-6.668 1.848-8.402 4.85-.221.382-.71.513-1.093.292-.383-.221-.514-.71-.292-1.093 1.403-2.43 3.633-4.21 6.217-5.07-2.435-1.503-3.721-4.434-3.043-7.331.8-3.42 4.075-5.667 7.554-5.183zm5.813-.44c.408 0 .745.305.794.7l.006.1v.47c.244.09.468.221.665.384l.405-.234c.383-.221.872-.09 1.093.292.203.351.11.792-.202 1.033l-.09.06-.406.235c.021.125.032.254.032.385s-.011.26-.032.385l.405.235c.383.22.514.71.293 1.093-.202.35-.63.49-.995.34l-.098-.048-.405-.234c-.197.163-.42.294-.664.385v.469c0 .442-.359.8-.8.8-.409 0-.745-.305-.795-.7l-.006-.1v-.467c-.246-.09-.472-.222-.67-.387l-.406.234c-.383.221-.872.09-1.093-.292-.203-.351-.11-.792.202-1.033l.09-.06.406-.235c-.021-.125-.032-.254-.032-.385s.011-.26.032-.385l-.405-.235c-.383-.22-.514-.71-.293-1.093.202-.35.63-.49.995-.34l.098.048.406.234c.198-.165.424-.296.67-.387v-.467c0-.442.358-.8.8-.8zM18.75 4.55c-.387 0-.7.313-.7.7 0 .387.313.7.7.7.387 0 .7-.313.7-.7 0-.387-.313-.7-.7-.7z" transform="translate(-24 -309) translate(24 309)"/>
            </g>
        </g>
    </g>
</svg>
