<svg xmlns="http://www.w3.org/2000/svg" width="20" height="20" viewBox="0 0 20 20">
    <g fill="none" fill-rule="evenodd">
        <g fill="#28282D">
            <g>
                <g>
                    <path d="M8.217.32c.05.082.092.224.123.426l.032.27c.01.1.017.209.024.328l.014.385.004.442-.004.5-.014-.693-.039.943-.469 1.94h1.87c1.979 0 3.992.757 3.992 2.787 0 .504-.101 1.004-.297 1.467l-1.559 3.676C11.325 14.132 10.035 15 8.61 15H4.888C3.569 15 2.5 13.903 2.5 12.55v.575c0 .345-.28.625-.625.625H1.25C.56 13.75 0 13.19 0 12.5V7.36c0-.814.494-1.548 1.25-1.854l.39-.158c.32-.13.685.025.814.345.03.074.046.154.046.234v.494l.006-.17c.003-.055.01-.111.017-.167L2.5 6.09l.033-.077c.072-.433.254-.828.516-1.153L5.638.32c1.457-.427 2.317-.427 2.58 0zm-6.56 12.22l-.022.009H3.75c0 .623.446 1.125 1.006 1.193l.132.008H8.61c.854 0 1.639-.487 2.046-1.263l.087-.184 1.559-3.676c.13-.309.198-.642.198-.98 0-.9-.9-1.476-2.486-1.531l-.256-.005L6.3 6.11l.813-3.364.034-.818h.014v-.153l-.023-.509-.014.001c-.142.017-.309.046-.498.088l-.162.037-2.33 4.088-.113.166c-.098.122-.173.262-.218.414l-.038.16-.012.117-.003.086h-.033l-.071.166-.382-.167h-.68l.164.893-1.022.186H2.5v5h-.625c-.077 0-.15.014-.218.04z" transform="translate(-55 -99) translate(55 99) translate(2.5 2.5)"/>
                </g>
            </g>
        </g>
    </g>
</svg>
