<svg xmlns="http://www.w3.org/2000/svg" width="120" height="120" viewBox="0 0 120 120">
    <g fill="none" fill-rule="evenodd">
        <g>
            <g>
                <path d="M0 120L120 120 120 0 0 0z" transform="translate(-128 -269) translate(128 269)"/>
                <path fill="#F6F6F7" d="M75 5c5.523 0 10 4.477 10 10h5c8.284 0 15 6.716 15 15v70c0 8.284-6.716 15-15 15H30c-8.284 0-15-6.716-15-15V30c0-8.284 6.716-15 15-15h5c0-5.523 4.477-10 10-10h30zM35 25h-5c-2.761 0-5 2.239-5 5v70c0 2.761 2.239 5 5 5h60c2.761 0 5-2.239 5-5V30c0-2.761-2.239-5-5-5h-5c0 5.523-4.477 10-10 10H45c-5.523 0-10-4.477-10-10zm40-10H45v10h30V15z" transform="translate(-128 -269) translate(128 269)"/>
                <path fill="#F6F6F7" fill-rule="nonzero" d="M80 65c2.761 0 5 2.239 5 5s-2.239 5-5 5H40c-2.761 0-5-2.239-5-5s2.239-5 5-5h40zM80 83c2.761 0 5 2.239 5 5s-2.239 5-5 5H40c-2.761 0-5-2.239-5-5s2.239-5 5-5h40zM50 47c2.761 0 5 2.239 5 5s-2.239 5-5 5H40c-2.761 0-5-2.239-5-5s2.239-5 5-5h10z" transform="translate(-128 -269) translate(128 269)"/>
            </g>
        </g>
    </g>
</svg>
