<svg xmlns="http://www.w3.org/2000/svg" width="20" height="20" viewBox="0 0 20 20">
    <g fill="none" fill-rule="evenodd">
        <g>
            <g>
                <g>
                    <path d="M0 0H20V20H0z" transform="translate(-134 -711) translate(16 697) translate(118 14)"/>
                    <path fill="#28282D" d="M16.875 3.125c.69 0 1.25.56 1.25 1.25v11.25c0 .69-.56 1.25-1.25 1.25H3.125c-.69 0-1.25-.56-1.25-1.25V4.375c0-.69.56-1.25 1.25-1.25zm-10 6.509l-3.75 3.748v2.243h13.75v-.992l-3.125-3.124-1.616 1.616c-.235.234-.552.366-.884.366-.32 0-.626-.122-.858-.34l-.026-.026-3.491-3.491zm10-5.259H3.125v7.241L5.991 8.75c.235-.234.552-.366.884-.366.32 0 .626.122.857.34l.027.026 3.491 3.491 1.616-1.616c.235-.234.552-.366.884-.366.32 0 .626.122.857.34l.027.026 2.241 2.242V4.375zm-4.688 2.5c.518 0 .938.42.938.938 0 .517-.42.937-.938.937-.517 0-.937-.42-.937-.938 0-.517.42-.937.938-.937z" transform="translate(-134 -711) translate(16 697) translate(118 14)"/>
                </g>
            </g>
        </g>
    </g>
</svg>
