<svg xmlns="http://www.w3.org/2000/svg" width="20" height="20" viewBox="0 0 20 20">
    <g fill="none" fill-rule="evenodd">
        <g>
            <g>
                <path d="M0 0H20V20H0z" transform="translate(-16 -306) translate(16 306)"/>
                <path fill="#ACACBB" d="M9.063 1.667c4.084 0 7.395 3.31 7.395 7.396 0 1.742-.602 3.343-1.61 4.607l3.24 3.24c.326.326.326.854 0 1.18-.3.3-.772.323-1.1.069l-.078-.07-3.24-3.24c-1.264 1.007-2.866 1.61-4.607 1.61-4.085 0-7.396-3.312-7.396-7.396 0-4.085 3.31-7.396 7.396-7.396zm0 1.666c-3.165 0-5.73 2.565-5.73 5.73 0 3.164 2.565 5.729 5.73 5.729 3.164 0 5.729-2.565 5.729-5.73 0-3.164-2.565-5.729-5.73-5.729z" transform="translate(-16 -306) translate(16 306)"/>
            </g>
        </g>
    </g>
</svg>
