<svg xmlns="http://www.w3.org/2000/svg" width="16" height="16" viewBox="0 0 16 16">
    <g fill="none" fill-rule="evenodd">
        <g>
            <g>
                <g>
                    <path d="M0 0H16V16H0z" transform="translate(-606 -416) translate(86 347) translate(520 69)"/>
                    <path fill="#EB7054" d="M4.231 1.91c1.392-.28 2.79.218 3.7 1.242l.068.08.064-.076C8.968 2.134 10.37 1.63 11.77 1.91c1.83.366 3.147 1.973 3.148 3.84 0 2.093-1.266 4.092-3.346 5.964-.709.638-1.465 1.216-2.222 1.726-.265.178-.512.336-.734.47l-.144.088-.145.084c-.203.113-.45.113-.652 0l-.145-.084-.315-.193c-.176-.11-.364-.231-.563-.365-.757-.51-1.513-1.088-2.222-1.726-2.08-1.872-3.346-3.871-3.346-5.964 0-1.867 1.318-3.474 3.148-3.84z" transform="translate(-606 -416) translate(86 347) translate(520 69)"/>
                </g>
            </g>
        </g>
    </g>
</svg>
