<svg xmlns="http://www.w3.org/2000/svg" width="20" height="20" viewBox="0 0 20 20">
    <g fill="none" fill-rule="evenodd">
        <g>
            <g>
                <g>
                    <path d="M0 0H20V20H0z" transform="translate(-32 -346) translate(16 91) translate(16 255)"/>
                    <path fill="#EB4242" d="M10 1.7c3.203 0 5.8 2.597 5.8 5.8 0 1.937-.95 3.652-2.408 4.705l-.11.076c2.071.758 3.852 2.224 4.99 4.193.22.383.09.872-.293 1.093-.382.221-.872.09-1.093-.292-1.417-2.453-4.031-3.967-6.863-3.975h-.046H10c-2.84 0-5.465 1.515-6.886 3.974-.221.383-.71.514-1.093.293-.383-.221-.514-.71-.293-1.093 1.138-1.97 2.919-3.435 4.99-4.193l-.11-.076C5.15 11.152 4.2 9.437 4.2 7.5c0-3.203 2.597-5.8 5.8-5.8zm.022 10c2.31-.012 4.178-1.888 4.178-4.2 0-2.32-1.88-4.2-4.2-4.2-2.32 0-4.2 1.88-4.2 4.2 0 2.32 1.88 4.2 4.2 4.2h-.022z" transform="translate(-32 -346) translate(16 91) translate(16 255)"/>
                </g>
            </g>
        </g>
    </g>
</svg>
