<svg xmlns="http://www.w3.org/2000/svg" width="24" height="24" viewBox="0 0 24 24">
    <g fill="none" fill-rule="evenodd">
        <g>
            <g>
                <g>
                    <path d="M0 0H24V24H0z" transform="translate(-24 -251) translate(24 249) translate(0 2)"/>
                    <path fill="#28282D" d="M12.013 2c4.139.031 7.475 3.46 7.475 7.635v.665c0 2.753.472 4.695 1.211 5.967.28.479.284 1.07.008 1.552-.275.482-.786.78-1.343.781h-3.61l-.003.146c-.102 2.008-1.762 3.604-3.795 3.604s-3.693-1.596-3.795-3.604l-.005-.146h-3.61c-.504-.001-.973-.247-1.26-.654l-.082-.127c-.275-.482-.272-1.074.007-1.55.741-1.275 1.214-3.216 1.214-5.969v-.749c-.003-2.01.797-3.937 2.221-5.355C8.071 2.778 10.002 1.988 12.013 2zm2.14 16.6H9.757l.004.107c.081 1.142 1.033 2.043 2.195 2.043s2.114-.901 2.194-2.043l.003-.107zm-2.152-15l-.277.005c-1.483.06-2.893.674-3.949 1.725-1.122 1.117-1.752 2.636-1.75 4.22v.75c0 3.023-.54 5.241-1.432 6.776L4.635 17h14.642l-.085-.15c-.774-1.446-1.255-3.457-1.3-6.123l-.004-.427v-.665c0-3.303-2.634-6.01-5.887-6.035z" transform="translate(-24 -251) translate(24 249) translate(0 2)"/>
                </g>
            </g>
        </g>
    </g>
</svg>
