<svg xmlns="http://www.w3.org/2000/svg" xmlns:xlink="http://www.w3.org/1999/xlink" width="48" height="48" viewBox="0 0 48 48">
    <defs>
        <radialGradient id="33vigeblkb" cx="29.064%" cy="99.753%" r="101.195%" fx="29.064%" fy="99.753%" gradientTransform="matrix(.99618 0 0 1 .001 0)">
            <stop offset="0%" stop-color="#FFD776"/>
            <stop offset="24.63%" stop-color="#F3A554"/>
            <stop offset="37.93%" stop-color="#F15C3C"/>
            <stop offset="53.94%" stop-color="#D94867"/>
            <stop offset="69.95%" stop-color="#C32F87"/>
            <stop offset="91.22%" stop-color="#7D63A7"/>
            <stop offset="98.52%" stop-color="#5C6CB3"/>
        </radialGradient>
        <circle id="m29g94hira" cx="24" cy="24" r="24"/>
    </defs>
    <g fill="none" fill-rule="evenodd">
        <g>
            <g>
                <g transform="translate(-132 -329) translate(68 329) translate(64)">
                    <mask id="vs340zaxfc" fill="#fff">
                        <use xlink:href="#m29g94hira"/>
                    </mask>
                    <use fill="#D8D8D8" xlink:href="#m29g94hira"/>
                    <path fill="url(#33vigeblkb)" fill-rule="nonzero" d="M49.055 39.134c0 6.063-4.9 10.978-10.945 10.978H9.697c-6.044 0-10.945-4.915-10.945-10.978V10.978C-1.248 4.915 3.652 0 9.697 0H38.11c6.044 0 10.945 4.915 10.945 10.978v28.156h-.001z" mask="url(#vs340zaxfc)"/>
                    <g fill="#FFF" fill-rule="nonzero" mask="url(#vs340zaxfc)">
                        <g transform="translate(8.571 8.571)">
                            <path d="M21.541.079H9.315C4.207.079.067 4.107.067 9.076V21.77c0 4.97 4.14 8.997 9.248 8.997h12.227c5.108 0 9.248-4.028 9.248-8.997v-1.625h-.001V9.076c0-4.97-4.14-8.997-9.248-8.997zm0 3.249h.098c3.218.051 5.81 2.605 5.81 5.748v12.796l-.002.087c-.103 3.088-2.707 5.56-5.905 5.56H9.315c-3.263 0-5.908-2.574-5.908-5.75V9.077c0-3.175 2.645-5.748 5.908-5.748h12.226z"/>
                            <path d="M6.857 15.43c0 4.733 3.837 8.57 8.57 8.57 4.703 0 8.467-3.796 8.57-8.527.107-4.875-3.135-8.386-8.353-8.607l-.159-.005c-4.738-.138-8.628 3.795-8.628 8.569zm8.513-4.58c3.104.091 4.697 1.791 4.637 4.536-.057 2.587-2.075 4.623-4.58 4.623-2.529 0-4.578-2.05-4.578-4.58 0-2.559 2.068-4.65 4.52-4.579z"/>
                            <circle cx="23.537" cy="7.174" r="1.714"/>
                        </g>
                    </g>
                </g>
            </g>
        </g>
    </g>
</svg>
