<svg xmlns="http://www.w3.org/2000/svg" width="16" height="16" viewBox="0 0 16 16">
    <g fill="none" fill-rule="evenodd">
        <g>
            <g>
                <path d="M0 0H16V16H0z" transform="translate(-343 -840) translate(343 840)"/>
                <path fill="#ACACBB" d="M8 12c.736 0 1.333.597 1.333 1.333 0 .737-.597 1.334-1.333 1.334s-1.333-.597-1.333-1.334C6.667 12.597 7.264 12 8 12zm0-5.333c.736 0 1.333.597 1.333 1.333S8.736 9.333 8 9.333 6.667 8.736 6.667 8 7.264 6.667 8 6.667zm0-5.334c.736 0 1.333.597 1.333 1.334C9.333 3.403 8.736 4 8 4s-1.333-.597-1.333-1.333c0-.737.597-1.334 1.333-1.334z" transform="translate(-343 -840) translate(343 840)"/>
            </g>
        </g>
    </g>
</svg>
