<svg xmlns="http://www.w3.org/2000/svg" width="24" height="24" viewBox="0 0 24 24">
    <g fill="none" fill-rule="evenodd">
        <g>
            <g>
                <g>
                    <path fill="#FFF" fill-opacity="0" d="M0 0H24V24H0z" transform="translate(-86 -1343) translate(86 1276) translate(0 67)"/>
                    <path fill="#CBCBD7" d="M13.25 2.438l8 6.4c.474.38.75.954.75 1.562V20c0 1.054-.816 1.918-1.85 1.995L20 22h-4c-1.104-.001-2-.897-2-2.001v-3.002c0-1.054-.816-1.918-1.85-1.994l-.15-.006c-1.054 0-1.918.816-1.995 1.85l-.005.15V20c0 1.104-.896 2-2 2H4c-1.054.001-1.918-.815-1.995-1.85L2 20v-9.6c0-.608.276-1.182.75-1.562l8-6.4c.731-.584 1.769-.584 2.5 0zM20 10.4L12 4l-8 6.4v9.599h4l.001-3.075.01-.223c.149-2.016 1.78-3.599 3.854-3.698l.208-.005.223.01c2.016.149 3.599 1.78 3.699 3.787l.005.202V20L20 20v-9.6z" transform="translate(-86 -1343) translate(86 1276) translate(0 67)"/>
                </g>
            </g>
        </g>
    </g>
</svg>
