<svg xmlns="http://www.w3.org/2000/svg" width="24" height="24" viewBox="0 0 24 24">
    <g fill="none" fill-rule="evenodd">
        <g>
            <g>
                <g>
                    <g>
                        <path d="M0 24L24 24 24 0 0 0z" transform="translate(-278 -841) translate(86 774) translate(192 67)"/>
                    </g>
                    <path fill="#FFF" d="M7.281 3.293c.346-.36.891-.388 1.268-.083l.09.083L17 12l-8.36 8.707c-.376.39-.984.39-1.359 0-.346-.36-.373-.928-.08-1.32l.08-.094L14.283 12 7.281 4.707c-.346-.36-.373-.928-.08-1.32l.08-.094z" transform="translate(-278 -841) translate(86 774) translate(192 67) matrix(-1 0 0 1 24 0)"/>
                </g>
            </g>
        </g>
    </g>
</svg>
