<svg xmlns="http://www.w3.org/2000/svg" width="12" height="12" viewBox="0 0 12 12">
    <g fill="none" fill-rule="evenodd">
        <g>
            <g>
                <path d="M0 0H12V12H0z" transform="translate(-333 -211) translate(333 211)"/>
                <path fill="#CBCBD7" d="M6.048 2.367c.678-.767 1.73-1.145 2.779-.935 1.372.275 2.36 1.48 2.36 2.88 0 1.57-.949 3.07-2.509 4.474-.531.478-1.099.912-1.666 1.294-.2.134-.384.252-.55.353l-.109.065-.109.063c-.151.085-.337.085-.488 0l-.11-.063-.236-.144c-.131-.082-.273-.174-.422-.274-.567-.382-1.135-.816-1.666-1.294C1.762 7.382.812 5.882.812 4.312c0-1.4.989-2.605 2.361-2.88 1.044-.209 2.093.164 2.775.932l.051.06z" transform="translate(-333 -211) translate(333 211)"/>
            </g>
        </g>
    </g>
</svg>
