<svg xmlns="http://www.w3.org/2000/svg" width="24" height="24" viewBox="0 0 24 24">
    <g fill="none" fill-rule="evenodd">
        <g>
            <g>
                <g>
                    <path fill="#FFF" fill-opacity="0" d="M0 0H24V24H0z" transform="translate(-251 -620) translate(0 610) translate(251 10)"/>
                    <path fill="#EB7054" d="M18 2c2.761 0 5 2.239 5 5v7c0 2.761-2.239 5-5 5h-1.5l-2.1 2.8c-.128.17-.274.327-.434.466l-.166.134c-1.275.956-3.062.744-4.081-.452L9.6 21.8 7.5 19H6c-2.761 0-5-2.239-5-5V7c0-2.761 2.239-5 5-5h12z" transform="translate(-251 -620) translate(0 610) translate(251 10)"/>
                    <path fill="#FFF" d="M8 10c.552 0 1 .448 1 1s-.448 1-1 1-1-.448-1-1 .448-1 1-1zm4 0c.552 0 1 .448 1 1s-.448 1-1 1-1-.448-1-1 .448-1 1-1zm4 0c.552 0 1 .448 1 1s-.448 1-1 1-1-.448-1-1 .448-1 1-1z" transform="translate(-251 -620) translate(0 610) translate(251 10)"/>
                </g>
            </g>
        </g>
    </g>
</svg>
