<svg xmlns="http://www.w3.org/2000/svg" width="20" height="20" viewBox="0 0 20 20">
    <g fill="none" fill-rule="evenodd">
        <g fill="#FFF">
            <g>
                <path fill-opacity="0" d="M0 0H20V20H0z" transform="translate(-26 -94) translate(26 94)"/>
                <path d="M13.492.833c.455 0 .825.37.825.825l-.001 1.008h1.35c1.381 0 2.5 1.12 2.5 2.5V15.75c0 1.38-1.119 2.5-2.5 2.5h-11.5c-1.38 0-2.5-1.12-2.5-2.5V5.167c0-1.381 1.12-2.5 2.5-2.5h1.167V1.657c0-.455.37-.825.825-.825.456 0 .825.37.825.825v1.008h5.683V1.658c0-.455.37-.825.826-.825zm-8.16 3.333H4.168c-.513 0-.936.387-.994.884l-.006.117V15.75c0 .513.386.936.883.993l.117.007h11.5c.513 0 .935-.386.993-.883l.007-.117V5.167c0-.513-.386-.936-.884-.994l-.116-.006h-1.351v.425c0 .455-.369.825-.824.825-.456 0-.825-.37-.825-.825l-.001-.426H6.983v.426c0 .455-.369.825-.825.825-.455 0-.825-.37-.825-.825v-.426zm1.001 7.667c.46 0 .834.373.834.834v.166c0 .46-.373.834-.834.834h-.166c-.46 0-.834-.373-.834-.834v-.166c0-.46.373-.834.834-.834h.166zm3.667 0c.46 0 .833.373.833.834v.166c0 .46-.373.834-.833.834h-.167c-.46 0-.833-.373-.833-.834v-.166c0-.46.373-.834.833-.834H10zm3.667 0c.46 0 .833.373.833.834v.166c0 .46-.373.834-.833.834H13.5c-.46 0-.833-.373-.833-.834v-.166c0-.46.373-.834.833-.834h.167zM6.333 8.167c.46 0 .834.373.834.833v.167c0 .46-.373.833-.834.833h-.166c-.46 0-.834-.373-.834-.833V9c0-.46.373-.833.834-.833h.166zm3.667 0c.46 0 .833.373.833.833v.167c0 .46-.373.833-.833.833h-.167C9.373 10 9 9.627 9 9.167V9c0-.46.373-.833.833-.833H10zm3.667 0c.46 0 .833.373.833.833v.167c0 .46-.373.833-.833.833H13.5c-.46 0-.833-.373-.833-.833V9c0-.46.373-.833.833-.833h.167z" transform="translate(-26 -94) translate(26 94)"/>
            </g>
        </g>
    </g>
</svg>
