<svg xmlns="http://www.w3.org/2000/svg" width="24" height="24" viewBox="0 0 24 24">
    <g fill="none" fill-rule="evenodd">
        <g>
            <g>
                <path d="M0 0H24V24H0z" transform="translate(-24 -81) translate(24 81)"/>
                <path fill="#28282D" d="M3.235 2.492c.514-.181 1.09-.08 1.512.275 1.962 1.646 4.092 2.732 6.257 3.364 1.362.398 2.483.552 3.217.568L18 6.7c2.513 0 4.55 2.037 4.55 4.55 0 2.297-1.702 4.196-3.913 4.506l-1.103 4.406c-.122.489-.474.888-.945 1.07-.417.16-.882.133-1.275-.072l-.143-.085-1.03-.687c-.389-.258-.637-.676-.683-1.135l-.008-.154v-3.243c-.667.077-1.498.236-2.446.513C8.84 17 6.71 18.087 4.748 19.732c-.461.388-1.105.474-1.652.22-.546-.254-.896-.802-.896-1.405V3.953c0-.603.35-1.15.896-1.405zM16.974 15.8h-1.925l.001 3.272.949.633.975-3.905zM3.8 4.06v14.38l.322-.262c1.893-1.505 3.923-2.55 5.99-3.21l.444-.135c.86-.252 1.676-.422 2.43-.526.165-.022.32-.04.464-.056V8.25c-.144-.015-.299-.034-.464-.056-.754-.104-1.57-.274-2.43-.526-2.369-.692-4.697-1.879-6.838-3.675l.082.068zM18 14.2c1.63 0 2.95-1.32 2.95-2.95 0-1.63-1.32-2.95-2.95-2.95l-2.951-.001V14.2l2.932-.001z" transform="translate(-24 -81) translate(24 81)"/>
            </g>
        </g>
    </g>
</svg>
