<svg xmlns="http://www.w3.org/2000/svg" width="20" height="20" viewBox="0 0 20 20">
    <g fill="none" fill-rule="evenodd">
        <g>
            <g>
                <g>
                    <path d="M0 0H20V20H0z" transform="translate(-32 -311) translate(16 297) translate(16 14)"/>
                    <path fill="#28282D" d="M17.384 5.324c.166-.41.633-.606 1.042-.44.375.152.572.557.474.939l-.034.103-4.062 10c-.255.626-1.104.663-1.428.11l-.055-.11L10 7.751l-3.321 8.175c-.255.626-1.104.663-1.428.11l-.055-.11-4.062-10c-.166-.41.03-.876.44-1.042.375-.153.799 0 .995.342l.047.098 3.321 8.175 3.322-8.175c.254-.626 1.103-.663 1.428-.11l.054.11 3.321 8.175 3.322-8.175z" transform="translate(-32 -311) translate(16 297) translate(16 14)"/>
                    <path fill="#28282D" d="M18.75 9.836c.442 0 .8.358.8.8 0 .408-.305.744-.7.794l-.1.006H1.25c-.442 0-.8-.358-.8-.8 0-.408.305-.744.7-.794l.1-.006h17.5z" transform="translate(-32 -311) translate(16 297) translate(16 14)"/>
                </g>
            </g>
        </g>
    </g>
</svg>
