<svg xmlns="http://www.w3.org/2000/svg" width="24" height="24" viewBox="0 0 24 24">
    <g fill="none" fill-rule="evenodd">
        <g>
            <g>
                <path d="M0 0H24V24H0z" transform="translate(-24 -137) translate(24 137)"/>
                <path fill="#28282D" d="M12.495 2.691c1.192-1.19 3.122-1.189 4.312.002 1.094 1.093 1.184 2.81.269 4.007h1.674c1.684 0 3.05 1.366 3.05 3.05 0 1.118-.602 2.096-1.499 2.627L20.3 18.75c0 .808-.619 1.472-1.409 1.544l-.141.006H5.25c-.808 0-1.472-.619-1.544-1.409L3.7 18.75v-6.373c-.898-.53-1.5-1.508-1.5-2.627 0-1.684 1.366-3.05 3.05-3.05h1.674c-.915-1.196-.825-2.914.269-4.007l.14-.133c1.198-1.056 3.026-1.013 4.172.132.19.19.354.418.495.68.141-.263.305-.49.495-.68zM11.203 12.8H5.3V18.7h5.903v-5.9zm7.497 0h-5.897v5.9l5.897.001v-5.9zm-7.497-4.5L5.25 8.3c-.8 0-1.45.65-1.45 1.45 0 .8.65 1.45 1.45 1.45h5.953V8.3zm7.547.001h-5.947v2.9h5.947c.754 0 1.373-.575 1.443-1.31l.007-.14c0-.8-.65-1.45-1.45-1.45zm-8.376-4.477c-.566-.565-1.484-.565-2.05.001-.566.566-.566 1.484-.001 2.05.284.284.975.528 1.893.675.275.044.549.077.809.1l.133.011-.015-.2c-.024-.251-.055-.5-.093-.74l-.064-.354c-.15-.749-.37-1.3-.612-1.543zm5.192-.099c-.57-.464-1.409-.431-1.94.099-.284.284-.528.975-.675 1.893-.044.275-.077.549-.1.809l-.012.133.201-.015c.251-.024.5-.055.74-.093l.354-.064c.749-.15 1.3-.37 1.543-.612.565-.566.565-1.484-.001-2.05z" transform="translate(-24 -137) translate(24 137)"/>
            </g>
        </g>
    </g>
</svg>
