<svg xmlns="http://www.w3.org/2000/svg" width="24" height="24" viewBox="0 0 24 24">
    <g fill="none" fill-rule="evenodd">
        <g>
            <g>
                <path d="M0 0H24V24H0z" transform="translate(-331 -16) translate(331 16)"/>
                <path fill="#5E5E68" d="M10.875 2c4.902 0 8.875 3.973 8.875 8.875 0 2.09-.723 4.012-1.932 5.53l3.889 3.888c.39.39.39 1.024 0 1.414-.36.36-.928.388-1.32.083l-.095-.083-3.888-3.89c-1.517 1.21-3.438 1.933-5.529 1.933C5.973 19.75 2 15.777 2 10.875S5.973 2 10.875 2zm0 2C7.078 4 4 7.078 4 10.875s3.078 6.875 6.875 6.875 6.875-3.078 6.875-6.875S14.672 4 10.875 4z" transform="translate(-331 -16) translate(331 16)"/>
            </g>
        </g>
    </g>
</svg>
