<svg xmlns="http://www.w3.org/2000/svg" xmlns:xlink="http://www.w3.org/1999/xlink" width="20" height="20" viewBox="0 0 20 20">
    <defs>
        <path id="9lf8a2ijka" d="M10.833 10C13.135 10 15 11.865 15 14.167v1.666c0 .46-.373.834-.833.834-.46 0-.834-.373-.834-.834v-1.666c0-1.381-1.119-2.5-2.5-2.5H4.167c-1.381 0-2.5 1.119-2.5 2.5v1.666c0 .46-.373.834-.834.834-.46 0-.833-.373-.833-.834v-1.666C0 11.865 1.865 10 4.167 10h6.666zM7.5 0c2.301 0 4.167 1.865 4.167 4.167 0 2.3-1.866 4.166-4.167 4.166-2.301 0-4.167-1.865-4.167-4.166C3.333 1.865 5.2 0 7.5 0zm0 1.667c-1.38 0-2.5 1.119-2.5 2.5 0 1.38 1.12 2.5 2.5 2.5s2.5-1.12 2.5-2.5c0-1.381-1.12-2.5-2.5-2.5z"/>
    </defs>
    <g fill="none" fill-rule="evenodd">
        <g>
            <g>
                <g>
                    <path fill="#000" fill-opacity="0" d="M0 20L20 20 20 0 0 0z" transform="translate(-32 -269) translate(16 255) translate(16 14)"/>
                    <g transform="translate(-32 -269) translate(16 255) translate(16 14) translate(2.5 1.667)">
                        <use fill="#28282D" xlink:href="#9lf8a2ijka"/>
                    </g>
                </g>
            </g>
        </g>
    </g>
</svg>
