<svg xmlns="http://www.w3.org/2000/svg" width="24" height="24" viewBox="0 0 24 24">
    <g fill="none" fill-rule="evenodd">
        <g>
            <g>
                <path d="M0 0H24V24H0z" transform="translate(-335 -72) translate(335 72)"/>
                <path fill="#ACACBB" d="M4.125 16.875c.621 0 1.125.504 1.125 1.125s-.504 1.125-1.125 1.125S3 18.621 3 18s.504-1.125 1.125-1.125zm16.125.375c.414 0 .75.336.75.75 0 .405-.32.735-.722.75H8.25c-.414 0-.75-.336-.75-.75 0-.405.321-.735.722-.75H20.25zM4.125 10.875c.621 0 1.125.504 1.125 1.125s-.504 1.125-1.125 1.125S3 12.621 3 12s.504-1.125 1.125-1.125zm16.125.375c.414 0 .75.336.75.75 0 .405-.32.735-.722.75H8.25c-.414 0-.75-.336-.75-.75 0-.405.321-.735.722-.75H20.25zM4.125 4.875c.621 0 1.125.504 1.125 1.125s-.504 1.125-1.125 1.125S3 6.621 3 6s.504-1.125 1.125-1.125zm16.125.375c.414 0 .75.336.75.75 0 .405-.32.735-.722.75H8.25c-.414 0-.75-.336-.75-.75 0-.405.32-.735.722-.75H20.25z" transform="translate(-335 -72) translate(335 72)"/>
            </g>
        </g>
    </g>
</svg>
