<svg xmlns="http://www.w3.org/2000/svg" width="24" height="24" viewBox="0 0 24 24">
    <g fill="none" fill-rule="evenodd">
        <g>
            <g transform="translate(-36 -920) translate(36 920)">
                <path d="M0 0H24V24H0z"/>
                <circle cx="12" cy="12" r="9" fill="#EB7054"/>
                <path fill="#FFF" fill-rule="nonzero" d="M15.249 13.874c.207-.358.666-.481 1.024-.274.359.208.482.666.274 1.025-.938 1.624-2.672 2.624-4.547 2.624-1.875 0-3.609-1-4.547-2.624-.208-.358-.085-.817.274-1.025.358-.207.817-.084 1.024.274.671 1.16 1.91 1.875 3.249 1.875 1.34 0 2.578-.715 3.249-1.875z"/>
                <circle cx="8.625" cy="10.125" r="1.125" fill="#FFF" fill-rule="nonzero"/>
                <circle cx="15.375" cy="10.125" r="1.125" fill="#FFF" fill-rule="nonzero"/>
            </g>
        </g>
    </g>
</svg>
