<svg xmlns="http://www.w3.org/2000/svg" width="20" height="20" viewBox="0 0 20 20">
    <g fill="none" fill-rule="evenodd">
        <g>
            <g transform="translate(-94 -261) translate(94 261)">
                <path d="M0 0H20V20H0z"/>
                <circle cx="10" cy="10" r="7.5" fill="#EB7054"/>
                <path fill="#FFF" d="M12.92 7.582c.3-.286.774-.274 1.06.025.262.275.275.697.044.985l-.069.076-4.583 4.375c-.266.253-.671.274-.96.063l-.076-.063-2.291-2.188c-.3-.286-.311-.76-.025-1.06.262-.275.683-.307.982-.09l.078.065 1.774 1.693 4.066-3.88z"/>
            </g>
        </g>
    </g>
</svg>
