<svg xmlns="http://www.w3.org/2000/svg" width="14" height="14" viewBox="0 0 14 14">
    <g fill="none" fill-rule="evenodd">
        <g>
            <g>
                <path d="M0 0H14V14H0z" transform="translate(-151 -512) translate(151 512)"/>
                <path fill="#141415" d="M7 1.167c.322 0 .583.26.583.583v4.666h4.667c.322 0 .583.262.583.584 0 .322-.26.583-.583.583H7.583v4.667c0 .322-.26.583-.583.583-.322 0-.583-.26-.583-.583V7.583H1.75c-.322 0-.583-.26-.583-.583 0-.322.26-.583.583-.583l4.667-.001V1.75c0-.322.26-.583.583-.583z" transform="translate(-151 -512) translate(151 512)"/>
            </g>
        </g>
    </g>
</svg>
