<svg xmlns="http://www.w3.org/2000/svg" width="32" height="32" viewBox="0 0 32 32">
    <g fill="none" fill-rule="evenodd">
        <g>
            <g>
                <path d="M0 0H32V32H0z" transform="translate(-290 -209) translate(290 209)"/>
                <path fill="#EB7054" d="M16 3.2c7.07 0 12.8 5.73 12.8 12.8S23.07 28.8 16 28.8 3.2 23.07 3.2 16 8.93 3.2 16 3.2zm0 1.6C9.814 4.8 4.8 9.814 4.8 16c0 6.186 5.014 11.2 11.2 11.2 6.186 0 11.2-5.014 11.2-11.2 0-6.186-5.014-11.2-11.2-11.2zm0 13.401c2.43 0 4.674 1.296 5.89 3.398.221.383.09.872-.292 1.093-.383.222-.872.09-1.093-.292-.93-1.608-2.647-2.599-4.505-2.599s-3.575.99-4.505 2.6c-.22.382-.71.513-1.093.291-.382-.22-.513-.71-.292-1.093 1.216-2.103 3.46-3.398 5.89-3.398zM11.5 12l.144.007C12.405 12.08 13 12.72 13 13.5c0 .828-.672 1.5-1.5 1.5s-1.5-.672-1.5-1.5.672-1.5 1.5-1.5zm9 0l.144.007C21.405 12.08 22 12.72 22 13.5c0 .828-.672 1.5-1.5 1.5s-1.5-.672-1.5-1.5.672-1.5 1.5-1.5z" transform="translate(-290 -209) translate(290 209)"/>
            </g>
        </g>
    </g>
</svg>
