<svg xmlns="http://www.w3.org/2000/svg" width="24" height="24" viewBox="0 0 24 24">
    <g fill="none" fill-rule="evenodd">
        <g>
            <g>
                <path d="M0 0H24V24H0z" transform="translate(-319 -554) translate(319 554)"/>
                <path fill="#419A93" d="M6.343 4.929L12 10.585l5.657-5.656c.39-.39 1.024-.39 1.414 0 .39.39.39 1.024 0 1.414L13.415 12l5.656 5.657c.39.39.39 1.024 0 1.414-.39.39-1.024.39-1.414 0L12 13.415l-5.657 5.656c-.39.39-1.024.39-1.414 0-.39-.39-.39-1.024 0-1.414L10.585 12 4.929 6.343c-.39-.39-.39-1.024 0-1.414.39-.39 1.024-.39 1.414 0z" transform="translate(-319 -554) translate(319 554)"/>
            </g>
        </g>
    </g>
</svg>
