<svg xmlns="http://www.w3.org/2000/svg" width="16" height="16" viewBox="0 0 16 16">
    <g fill="none" fill-rule="evenodd">
        <g>
            <g>
                <g>
                    <path d="M0 0H16V16H0z" transform="translate(-566 -416) translate(86 347) translate(480 69)"/>
                    <path fill="#ACACBB" d="M7.999 3.232l-.069-.08C7.021 2.128 5.623 1.631 4.231 1.91c-1.83.366-3.147 1.973-3.148 3.84 0 2.093 1.266 4.092 3.346 5.964.709.638 1.465 1.216 2.222 1.726.199.134.387.256.563.365l.315.193.145.084c.203.113.45.113.652 0l.145-.084.144-.087c.222-.135.469-.293.734-.471.757-.51 1.513-1.088 2.222-1.726 2.08-1.872 3.346-3.871 3.346-5.964 0-1.867-1.318-3.474-3.148-3.84-1.4-.28-2.801.224-3.706 1.246L8 3.232zm3.508-.015c1.207.242 2.076 1.302 2.076 2.533 0 1.626-1.078 3.33-2.904 4.973-.658.593-1.367 1.134-2.075 1.61l-.182.122-.342.22-.08.048-.08-.049-.342-.219-.182-.121c-.708-.477-1.417-1.018-2.075-1.61C3.495 9.08 2.417 7.375 2.417 5.75c0-1.231.869-2.291 2.076-2.533 1.165-.233 2.338.358 2.844 1.43l.055.122c.238.533.998.523 1.223-.015.475-1.135 1.685-1.779 2.892-1.537z" transform="translate(-566 -416) translate(86 347) translate(480 69)"/>
                </g>
            </g>
        </g>
    </g>
</svg>
