<svg xmlns="http://www.w3.org/2000/svg" width="24" height="24" viewBox="0 0 24 24">
    <g fill="none" fill-rule="evenodd">
        <g>
            <g>
                <path d="M0 0H24V24H0z" transform="translate(-24 -193) translate(24 193)"/>
                <path fill="#28282D" d="M21.936 19.5c0 2.033-1.596 3.693-3.604 3.795l-.196.005H12.75c-.442 0-.8-.358-.8-.8 0-.408.305-.744.7-.794l.1-.006h5.386c1.163 0 2.114-.901 2.195-2.043l.005-.157.001-.059c-.173.056-.355.091-.543.104l-.158.005h-1.5c-1.217 0-2.213-.946-2.294-2.143l-.006-.157V13.5c0-1.217.946-2.214 2.143-2.295l.157-.005 2.159-.001-.011-.129c-.199-1.74-.951-3.378-2.154-4.667l-.217-.223c-1.552-1.54-3.653-2.396-5.85-2.38-2.186-.016-4.288.84-5.84 2.38-1.329 1.32-2.16 3.047-2.37 4.89l-.013.129L6 11.2c1.217 0 2.214.946 2.295 2.143l.005.157v3.75c0 1.217-.946 2.214-2.143 2.295L6 19.55H4.5c-1.217 0-2.214-.946-2.295-2.143L2.2 17.25V12c0-2.612 1.043-5.116 2.897-6.956C6.95 3.204 9.462 2.18 12.062 2.2c2.612-.02 5.124 1.004 6.978 2.844 1.777 1.763 2.808 4.136 2.891 6.63l.005.326v7.5zM3.8 12.799v4.451c0 .354.263.647.605.694l.095.006H6c.354 0 .647-.263.694-.605l.006-.095V13.5c0-.354-.263-.647-.605-.694L6 12.8l-2.2-.001zm16.536 0l-2.2.001c-.354 0-.647.263-.693.605l-.007.095v3.75c0 .354.264.647.605.694l.095.006h1.5c.355 0 .648-.263.694-.605l.006-.095v-4.451z" transform="translate(-24 -193) translate(24 193)"/>
            </g>
        </g>
    </g>
</svg>
