<svg xmlns="http://www.w3.org/2000/svg" width="16" height="16" viewBox="0 0 16 16">
    <g fill="none" fill-rule="evenodd">
        <g>
            <g transform="translate(-327 -97) translate(327 97)">
                <circle cx="8" cy="8" r="8" fill="#ACACBB"/>
                <path fill="#FFF" fill-rule="nonzero" d="M10.874 5.126c.168.167.168.438 0 .606L8.606 8l2.268 2.268c.168.168.168.44 0 .606-.167.168-.438.168-.606 0L8 8.606l-2.268 2.268c-.168.168-.44.168-.606 0-.168-.167-.168-.438 0-.606L7.394 8 5.126 5.732c-.168-.168-.168-.44 0-.606.167-.168.438-.168.606 0L8 7.394l2.268-2.268c.168-.168.44-.168.606 0z"/>
            </g>
        </g>
    </g>
</svg>
