<svg xmlns="http://www.w3.org/2000/svg" width="16" height="16" viewBox="0 0 16 16">
    <g fill="none" fill-rule="evenodd">
        <g>
            <g>
                <g>
                    <g>
                        <path d="M0 16L16 16 16 0 0 0z" transform="translate(-286 -416) translate(86 347) translate(200 69)"/>
                    </g>
                    <path fill="#CBCBD7" d="M4.862 2.195c.24-.24.618-.259.88-.055l.063.055L11.609 8l-5.804 5.805c-.26.26-.683.26-.943 0-.24-.24-.259-.619-.056-.88l.056-.063L9.723 8 4.862 3.138c-.24-.24-.259-.618-.056-.88l.056-.063z" transform="translate(-286 -416) translate(86 347) translate(200 69)"/>
                </g>
            </g>
        </g>
    </g>
</svg>
