<svg xmlns="http://www.w3.org/2000/svg" width="20" height="20" viewBox="0 0 20 20">
    <g fill="none" fill-rule="evenodd">
        <g>
            <g>
                <path d="M0 0H20V20H0z" transform="translate(-258 -417) translate(258 417)"/>
                <path fill="#28282D" d="M16.875 3.125c.69 0 1.25.56 1.25 1.25v10c0 .332-.132.65-.366.884-.235.234-.552.366-.884.366h-4.646l-1.157 1.928c-.226.377-.633.607-1.072.607-.439 0-.846-.23-1.072-.607l-1.157-1.928H3.125c-.69 0-1.25-.56-1.25-1.25v-10c0-.69.56-1.25 1.25-1.25zm0 1.25H3.125v10h4.646c.44 0 .846.23 1.072.607L10 16.91l1.157-1.928c.226-.377.633-.607 1.072-.607h4.646v-10zM10 8.438c.518 0 .938.42.938.937 0 .518-.42.938-.938.938s-.938-.42-.938-.938.42-.938.938-.938zm-3.75 0c.518 0 .938.42.938.937 0 .518-.42.938-.938.938s-.938-.42-.938-.938.42-.938.938-.938zm7.5 0c.518 0 .938.42.938.937 0 .518-.42.938-.938.938s-.938-.42-.938-.938.42-.938.938-.938z" transform="translate(-258 -417) translate(258 417)"/>
            </g>
        </g>
    </g>
</svg>
