<svg xmlns="http://www.w3.org/2000/svg" width="24" height="24" viewBox="0 0 24 24">
    <g fill="none" fill-rule="evenodd">
        <g>
            <g>
                <g>
                    <path fill="#FFF" fill-opacity="0" d="M0 0H24V24H0z" transform="translate(-26 -3075) translate(0 3066) translate(26 9)"/>
                    <path fill="#EB7054" d="M13.25 2.438l8 6.4c.474.38.75.954.75 1.562V20c0 1.105-.895 2-2 2h-4c-1.104-.001-2-.897-2-2.001v-3.002c0-1.054-.816-1.918-1.85-1.994l-.15-.006c-1.054 0-1.918.816-1.995 1.85l-.005.15V20c0 1.104-.896 2-2 2H4C2.895 22 2 21.106 2 20v-9.6c0-.608.276-1.182.75-1.562l8-6.4c.731-.584 1.769-.584 2.5 0z" transform="translate(-26 -3075) translate(0 3066) translate(26 9)"/>
                </g>
            </g>
        </g>
    </g>
</svg>
