<svg xmlns="http://www.w3.org/2000/svg" width="20" height="20" viewBox="0 0 20 20">
    <g fill="none" fill-rule="evenodd">
        <g>
            <g>
                <path d="M0 0H20V20H0z" transform="translate(-330 -479) translate(330 479)"/>
                <path fill="#FFF" d="M10.08 3.945c1.13-1.278 2.882-1.908 4.631-1.558 2.288.458 3.934 2.467 3.935 4.8 0 2.616-1.582 5.116-4.182 7.456-.886.797-1.832 1.52-2.778 2.157-.331.223-.64.42-.917.589l-.18.108-.182.105c-.253.142-.561.142-.814 0l-.182-.105-.394-.24c-.22-.137-.455-.29-.703-.457-.946-.637-1.892-1.36-2.778-2.157-2.6-2.34-4.182-4.84-4.182-7.456 0-2.333 1.647-4.342 3.935-4.8 1.74-.348 3.488.273 4.624 1.553l.085.1z" transform="translate(-330 -479) translate(330 479)"/>
            </g>
        </g>
    </g>
</svg>
