<svg xmlns="http://www.w3.org/2000/svg" width="24" height="24" viewBox="0 0 24 24">
    <g fill="none" fill-rule="evenodd">
        <g>
            <g>
                <path d="M0 0H24V24H0z" transform="translate(-24 -365) translate(24 365)"/>
                <path fill="#28282D" d="M11.25 2.95c.442 0 .8.358.8.8 0 .408-.305.744-.7.794l-.1.006h-6.7v14.9h6.7c.408 0 .744.305.794.7l.006.1c0 .408-.305.744-.7.794l-.1.006H4.5c-.808 0-1.472-.619-1.544-1.409L2.95 19.5v-15c0-.808.619-1.472 1.409-1.544L4.5 2.95h6.75zm5.541 4.47l.09.077 3.937 3.937c.21.21.28.51.207.777-.004.005-.005.01-.007.017-.006.027-.016.053-.026.08-.006.008-.01.018-.014.027-.008.02-.019.041-.03.061l-.036.057-.016.023c-.02.025-.034.043-.05.06l-.028.03-3.937 3.937c-.313.313-.819.313-1.131 0-.284-.284-.31-.728-.078-1.041l.078-.09 2.568-2.569H9.75c-.442 0-.8-.358-.8-.8 0-.408.305-.744.7-.794l.1-.006h8.574L15.75 8.628c-.284-.284-.31-.728-.078-1.041l.078-.09c.284-.284.728-.31 1.041-.078z" transform="translate(-24 -365) translate(24 365)"/>
            </g>
        </g>
    </g>
</svg>
