<svg xmlns="http://www.w3.org/2000/svg" width="120" height="120" viewBox="0 0 120 120">
    <g fill="none" fill-rule="evenodd">
        <g>
            <g transform="translate(-128 -176) translate(128 176)">
                <path d="M0 0H120V120H0z"/>
                <path fill="#705751" d="M60.476 23.672c6.78-7.67 17.297-11.452 27.791-9.35 13.726 2.75 23.606 14.803 23.608 28.803 0 15.694-9.492 30.691-25.093 44.732-5.315 4.784-10.99 9.12-16.665 12.94-1.988 1.34-3.838 2.52-5.503 3.534l-1.082.65-1.089.632c-1.518.85-3.368.85-4.886 0l-1.089-.632-2.365-1.441c-1.316-.823-2.729-1.738-4.22-2.742-5.675-3.822-11.35-8.157-16.665-12.94C17.617 73.815 8.125 58.818 8.125 43.123c.002-13.999 9.882-26.052 23.608-28.802 10.436-2.09 20.928 1.64 27.743 9.32l.514.598z"/>
                <path fill="#F88C68" d="M87 106c16.667-14.4 25-26.155 25-35.263C112 57.075 100.807 46 87 46S62 57.075 62 70.737c0 9.108 8.333 20.862 25 35.263z"/>
                <circle cx="87" cy="71" r="4" fill="#705751"/>
            </g>
        </g>
    </g>
</svg>
