<svg xmlns="http://www.w3.org/2000/svg" width="120" height="120" viewBox="0 0 120 120">
    <g fill="none" fill-rule="evenodd">
        <g>
            <g>
                <path d="M0 0H120V120H0z" transform="translate(-128 -187) translate(128 187)"/>
                <path fill="#EB7054" d="M10 48H110V110H10z" transform="translate(-128 -187) translate(128 187)"/>
                <path fill="#705751" d="M10 92L60 48 110 92z" transform="translate(-128 -187) translate(128 187) matrix(1 0 0 -1 0 140)"/>
                <path fill="#F5F1EA" d="M20 10h82v45.199L60.089 92 20 56.8V10z" transform="translate(-128 -187) translate(128 187)"/>
                <path fill="#F88C68" d="M10 110L60 66 110 110z" transform="translate(-128 -187) translate(128 187)"/>
                <path fill="#FFF" d="M29 20H93V21H29zM29 32H93V33H29zM29 44H93V45H29zM29 56H93V57H29z" transform="translate(-128 -187) translate(128 187)"/>
            </g>
        </g>
    </g>
</svg>
