<svg xmlns="http://www.w3.org/2000/svg" width="145" height="101" viewBox="0 0 145 101">
    <g fill="none" fill-rule="evenodd">
        <g>
            <g>
                <g fill="#F88C68">
                    <path d="M44 4v21.07L54.536 6.823C55.64 4.91 58.086 4.254 60 5.359c1.913 1.105 2.569 3.55 1.464 5.464L50.93 29.07l18.248-10.534c1.913-1.105 4.36-.449 5.464 1.464 1.105 1.913.45 4.36-1.464 5.464L54.928 36H76c2.21 0 4 1.79 4 4s-1.79 4-4 4H54.929l18.248 10.536c1.913 1.104 2.569 3.55 1.464 5.464-1.105 1.913-3.55 2.569-5.464 1.464L50.928 50.928l10.536 18.249c1.105 1.913.45 4.36-1.464 5.464-1.913 1.105-4.36.45-5.464-1.464L44 54.929V76c0 2.21-1.79 4-4 4s-4-1.79-4-4V54.928L25.464 73.177C24.36 75.09 21.914 75.746 20 74.64c-1.913-1.105-2.569-3.55-1.464-5.464L29.07 50.928 10.823 61.464c-1.913 1.105-4.36.45-5.464-1.464-1.104-1.913-.449-4.36 1.464-5.464L25.07 44H4c-2.21 0-4-1.79-4-4s1.79-4 4-4h21.071L6.823 25.464C4.91 24.36 4.254 21.914 5.36 20c1.105-1.913 3.55-2.569 5.464-1.464L29.07 29.07 18.536 10.823C17.43 8.91 18.086 6.463 20 5.36c1.913-1.105 4.36-.449 5.464 1.464L36 25.071V4c0-2.21 1.79-4 4-4s4 1.79 4 4z" transform="translate(-16 -105) translate(16 105) translate(65)"/>
                </g>
                <path fill="#705751" d="M74.108 13.84l30.82 24.232c5.717 4.495 9.057 11.362 9.063 18.634L114 68.181V92c0 4.97-4.03 9-9 9H68V11.93c2.14-.13 4.32.503 6.108 1.909z" transform="translate(-16 -105) translate(16 105)"/>
                <path fill="#705751" d="M28.108 13.84l30.82 24.232c5.717 4.495 9.057 11.362 9.063 18.634L68 68.181V92c0 4.97-4.03 9-9 9H22V11.93c2.14-.13 4.32.503 6.108 1.909z" transform="translate(-16 -105) translate(16 105) matrix(-1 0 0 1 90 0)"/>
                <path fill="#FFF" d="M43 63H55V81H43z" transform="translate(-16 -105) translate(16 105)"/>
                <path fill="#419A93" d="M19 19.867c10.493 0 19 8.507 19 19 0 4.852-1.819 9.28-4.811 12.637C36.18 54.863 38 59.29 38 64.142c0 9.472-6.932 17.325-16 18.764V97c0 2.21-1.79 4-4 4s-4-1.79-4-4V82.477C5.934 80.282 0 72.905 0 64.142c0-4.852 1.819-9.28 4.811-12.637C1.82 48.146 0 43.719 0 38.867c0-10.493 8.507-19 19-19z" transform="translate(-16 -105) translate(16 105)"/>
            </g>
        </g>
    </g>
</svg>
