<svg xmlns="http://www.w3.org/2000/svg" width="225" height="29" viewBox="0 0 225 29">
    <g fill="none" fill-rule="evenodd">
        <g fill="#FFF" fill-rule="nonzero">
            <path d="M141.76 114.32v-7.488h4.448v-1.472h-4.448V98h-1.696v16.32h1.696zm-21.088.096c8.32-2.336 13.44-7.52 13.44-14.464h-12.928v1.44h11.104c-.384 5.408-4.992 9.568-12.288 11.584l.672 1.44zm21.088 11.552V115.76h-17.6v10.208h17.6zm-1.696-1.408h-14.208v-7.36h14.208v7.36zm29.984-9.632V98h-1.696v6.56h-6.784V106h6.784v8.928h1.696zm-22.112-.736c3.392-1.376 6.208-4.16 7.36-7.808 1.184 3.232 3.936 5.728 7.072 6.976l.992-1.312c-3.936-1.472-7.296-5.056-7.296-9.248v-3.104H154.4v3.136c0 4.64-3.296 8.448-7.36 9.984l.896 1.376zm12.928 12.16c5.76 0 9.312-1.888 9.312-5.248 0-3.36-3.552-5.248-9.312-5.248-5.792 0-9.312 1.888-9.312 5.248 0 3.36 3.52 5.248 9.312 5.248zm0-1.376c-4.64 0-7.616-1.504-7.616-3.872s2.976-3.872 7.616-3.872 7.648 1.504 7.648 3.872-3.008 3.872-7.648 3.872zm36.128 1.472V98.032h-1.696v28.416h1.696zm-14.784-6.592c4.128 0 7.04-3.808 7.04-9.76 0-5.92-2.912-9.76-7.04-9.76-4.16 0-7.072 3.84-7.072 9.76 0 5.952 2.912 9.76 7.072 9.76zm0-1.472c-3.2 0-5.44-3.424-5.44-8.288 0-4.864 2.24-8.256 5.44-8.256 3.168 0 5.408 3.392 5.408 8.256 0 4.864-2.24 8.288-5.408 8.288zm46.592-5.536V98.032h-1.696v14.816h1.696zm-22.4-1.248c5.024 0 11.776-.256 17.44-1.056l-.096-1.312c-1.504.192-3.072.352-4.704.448v-8.192h3.168v-1.44h-15.232v1.44h3.168v8.576c-1.376.032-2.72.064-3.968.064l.224 1.472zm5.408-1.568v-8.544h5.568v8.288c-1.856.128-3.776.192-5.568.256zm18.208 16v-1.408H212.48v-3.904h16.32v-6.336h-18.08v1.408h16.416v3.584h-16.352v6.656h19.232zm28.48-3.424v-1.44h-6.752v-8.192c2.464-1.248 3.968-3.264 3.968-5.792 0-4.352-4.224-7.104-10.176-7.104-5.92 0-10.144 2.752-10.144 7.104 0 2.56 1.536 4.608 4.032 5.824v8.16h-6.72v1.44h25.792zm-12.96-9.728c-4.896 0-8.544-2.336-8.544-5.696 0-3.392 3.648-5.728 8.544-5.728 4.928 0 8.576 2.336 8.576 5.728 0 3.36-3.648 5.696-8.576 5.696zm4.512 8.288h-8.928v-7.52c1.312.384 2.784.608 4.416.608 1.664 0 3.2-.224 4.512-.608v7.52zm26.656-17.952v-1.408h-7.552v-3.744h-1.696v3.744h-7.584v1.408h16.832zm4.96 16.192v-10.176h4.448v-1.44h-4.448v-9.728h-1.696v21.344h1.696zm-13.376-3.904c4.032 0 6.688-2.048 6.688-5.184 0-3.168-2.656-5.216-6.688-5.216s-6.72 2.048-6.72 5.216c0 3.136 2.688 5.184 6.72 5.184zm0-1.376c-3.04 0-5.12-1.6-5.12-3.808 0-2.272 2.08-3.84 5.12-3.84s5.088 1.568 5.088 3.84c0 2.208-2.048 3.808-5.088 3.808zm14.784 11.616v-1.44h-17.056v-6.656h-1.696v8.096h18.752zm30.048.672v-14.912h4.992v-1.44h-4.992V98h-1.696v28.416h1.696zm-4.896-22.24v-1.44h-7.456v-4.448h-1.696v4.448h-7.744v1.44h16.896zm-8.256 15.584c3.936 0 6.752-2.592 6.752-6.368 0-3.744-2.816-6.4-6.752-6.4s-6.752 2.656-6.752 6.4c0 3.776 2.816 6.368 6.752 6.368zm0-1.44c-3.008 0-5.152-2.144-5.152-4.928 0-2.816 2.144-4.928 5.152-4.928 2.976 0 5.152 2.112 5.152 4.928 0 2.784-2.176 4.928-5.152 4.928zm41.728-6.4v-1.44h-18.24v-4.384h17.632V99.28h-19.424v1.408h17.76v4H321.76v7.232h19.936zm-9.472 14.56v-9.664h12.096v-1.408h-25.824v1.408h12.032v9.664h1.696z" transform="translate(-120 -98)"/>
        </g>
    </g>
</svg>
