<svg xmlns="http://www.w3.org/2000/svg" width="166" height="19" viewBox="0 0 166 19">
    <g fill="none" fill-rule="evenodd">
        <g fill="#FFF" fill-rule="nonzero">
            <g>
                <path d="M21.026 17.89h1.99v-.248h-.398c-.432 0-.821-.137-1.17-.411-.348-.274-.563-.66-.646-1.157h-.003L18.811.124h-.224L11.57 14.312 4.379.124h-.224L2.206 16.125l-.019.11c-.076.368-.237.669-.483.9l-.112.096c-.348.274-.746.41-1.194.41H0v.25h4.952v-.225h-.374c-.265 0-.493-.112-.684-.336-.19-.223-.286-.468-.286-.734v-.013L4.657 5.557l6.366 12.731h.249c.033-.365.12-.746.26-1.144.142-.398.283-.743.424-1.033l.211-.435 5.031-10.289 1.066 11.195v.014c0 .228-.067.44-.202.637l-.072.097c-.183.224-.415.336-.697.336h-.373v.224h4.106zm12.913.349c1.859 0 3.48-.374 4.865-1.12 1.385-.746 2.463-1.8 3.235-3.16.77-1.36 1.157-2.952 1.157-4.777 0-1.825-.386-3.418-1.157-4.778-.772-1.36-1.85-2.413-3.235-3.16-1.385-.746-3.007-1.12-4.865-1.12-1.825 0-3.429.374-4.814 1.12-1.385.747-2.464 1.8-3.235 3.16-.771 1.36-1.157 2.953-1.157 4.778 0 1.825.386 3.417 1.157 4.777.771 1.36 1.85 2.414 3.235 3.16 1.385.746 2.99 1.12 4.814 1.12zm0-.846c-1.31 0-2.459-.34-3.446-1.02-.987-.68-1.754-1.634-2.301-2.862-.548-1.228-.822-2.67-.822-4.33 0-1.658.274-3.102.822-4.329.547-1.228 1.314-2.181 2.301-2.861.988-.68 2.136-1.02 3.446-1.02 1.344 0 2.505.34 3.484 1.02.979.68 1.742 1.633 2.29 2.861.547 1.228.82 2.671.82 4.33 0 1.658-.273 3.102-.82 4.33-.548 1.227-1.311 2.18-2.29 2.86-.979.68-2.14 1.02-3.484 1.02zm31.626.497h1.99v-.248h-.398c-.431 0-.82-.137-1.17-.411-.348-.274-.563-.66-.646-1.157h-.003L63.35.124h-.224l-7.018 14.188L48.918.124h-.223l-1.95 16.001-.018.11c-.077.368-.238.669-.484.9l-.111.096c-.349.274-.747.41-1.195.41h-.398v.25h4.952v-.225h-.373c-.266 0-.494-.112-.685-.336-.19-.223-.286-.468-.286-.734v-.013l1.05-11.026 6.365 12.731h.249c.033-.365.12-.746.261-1.144.14-.398.282-.743.423-1.033l.212-.435 5.03-10.289 1.066 11.195v.014c0 .228-.067.44-.202.637l-.072.097c-.183.224-.414.336-.697.336h-.373v.224h4.106zm14.58 0h.075l1.344-4.379h-.249c-.265.697-.588 1.31-.97 1.841-.381.531-.863.941-1.443 1.232-.581.29-1.303.435-2.165.435h-3.459V9.73h3.907c.383 0 .707.118.973.354l.097.094c.282.298.423.655.423 1.07v.323h.249V7.042h-.25v.298c0 .415-.14.772-.422 1.07-.283.299-.639.457-1.07.473h-3.907v-7.54h4.965l.078.012c.326.06.609.194.85.402l.116.11c.34.348.51.78.51 1.293v.398h.25V.025c-.13.057-.33.113-.604.17L79.3.225c-.349.066-.726.124-1.132.174-.407.05-.793.075-1.157.075h-7.963l.025.249h.299c.431 0 .805.153 1.12.46.314.307.472.676.472 1.107v13.785c-.016.431-.179.8-.485 1.107-.307.307-.676.46-1.107.46h-.324v.25h11.098zM98.784.473h-2.066v.249h.473c.432 0 .792.145 1.083.435.29.29.443.65.46 1.082v11.45L85.495.1h-.248l.124.896c.083.597.124 1.335.124 2.215v12.914c0 .414-.149.771-.447 1.07-.299.298-.656.448-1.07.448h-.473v.248h5.922v-.248h-.473c-.414 0-.771-.15-1.07-.448-.298-.299-.448-.656-.448-1.07h-.003l-.018-11.475 13.259 13.59h.224l-.063-.436c-.04-.29-.083-.68-.124-1.17-.041-.49-.062-1.015-.062-1.58V2.24l.01-.141c.038-.323.16-.604.368-.841l.095-.1c.298-.29.655-.435 1.07-.435h.447v-.25h-3.856zm15.825 17.417v-.248h-.324c-.431 0-.8-.154-1.107-.46-.307-.308-.469-.677-.485-1.108V1.294h4.23c.472.015.868.157 1.19.428l.116.107c.34.34.51.775.51 1.306v.373l.249.025V0c-.128.057-.329.114-.603.171L118.24.2c-.349.066-.726.124-1.133.174-.406.05-.792.075-1.157.075h-8.833c-.348 0-.73-.025-1.144-.075-.415-.05-.793-.108-1.133-.174-.34-.066-.593-.132-.758-.199v3.533l.248-.025v-.373c0-.53.17-.966.51-1.306.34-.34.776-.519 1.307-.535h4.23v14.78c-.015.383-.144.718-.39 1.003l-.095.104c-.308.307-.677.46-1.108.46h-.323v.25h6.146zm12.292 0v-.248h-.299c-.432 0-.805-.154-1.12-.46-.315-.308-.472-.677-.472-1.108V1.344h.608c.194-.002.408-.004.643-.008l.241-.005c.415-.008.813.004 1.195.038.896.033 1.621.369 2.177 1.007.556.639.842 1.53.858 2.675.017.265.013.523-.012.771-.025.25-.062.457-.112.623-.199.746-.502 1.31-.908 1.692-.407.38-.855.638-1.344.77-.49.133-.95.208-1.38.225-.3.016-.56.02-.785.012l-.36-.012v.249c.414.016.796.186 1.144.51.349.323.663.709.946 1.157.05.083.165.27.348.56.183.29.398.634.647 1.032s.502.801.759 1.207c.257.407.49.767.697 1.082.207.315.344.531.41.647.315.415.697.801 1.145 1.157.448.357.979.639 1.592.846.615.208 1.319.311 2.115.311h1.742v-.248c-.464 0-.883-.079-1.257-.237-.373-.158-.721-.373-1.045-.647-.323-.273-.65-.61-.982-1.008-.25-.282-.535-.638-.859-1.07-.323-.431-.643-.866-.958-1.306-.315-.44-.576-.808-.784-1.107-.207-.299-.31-.456-.31-.473-.266-.365-.582-.738-.946-1.12-.366-.38-.73-.638-1.095-.77.846-.034 1.58-.283 2.202-.747.622-.465 1.107-1.058 1.456-1.78.348-.721.522-1.464.522-2.226 0-.78-.132-1.46-.398-2.04-.265-.582-.626-1.066-1.082-1.456-.457-.39-1.008-.685-1.655-.884-.647-.199-1.344-.298-2.09-.298h-7.315v.249h.323c.432 0 .8.153 1.107.46.307.307.47.676.485 1.107v13.785c-.016.431-.178.8-.485 1.107-.307.307-.676.46-1.107.46h-.323v.25h6.12zm22.369 0h.074l1.344-4.379h-.249c-.265.697-.588 1.31-.97 1.841-.381.531-.863.941-1.443 1.232-.581.29-1.303.435-2.165.435H142.4V9.73h3.907c.383 0 .707.118.973.354l.097.094c.282.298.423.655.423 1.07v.323h.248V7.042h-.248v.298c0 .415-.141.772-.423 1.07-.283.299-.639.457-1.07.473H142.4v-7.54h4.965l.078.012c.326.06.609.194.85.402l.116.11c.34.348.51.78.51 1.293v.398h.25V.025c-.13.057-.33.113-.604.17l-.143.029c-.349.066-.726.124-1.132.174-.407.05-.793.075-1.157.075h-7.963l.025.249h.299c.431 0 .804.153 1.12.46.314.307.472.676.472 1.107v13.785c-.016.431-.179.8-.485 1.107-.307.307-.677.46-1.107.46h-.324v.25h11.098zm14.805 0h.074l1.344-4.379h-.249c-.265.697-.588 1.31-.97 1.841-.381.531-.863.941-1.443 1.232-.581.29-1.303.435-2.165.435h-3.459V9.73h3.907c.383 0 .707.118.973.354l.097.094c.282.298.423.655.423 1.07v.323h.248V7.042h-.248v.298c0 .415-.141.772-.423 1.07-.283.299-.639.457-1.07.473h-3.907v-7.54h4.965l.078.012c.326.06.609.194.85.402l.116.11c.34.348.51.78.51 1.293v.398h.25V.025c-.13.057-.33.113-.604.17l-.143.029c-.349.066-.726.124-1.132.174-.407.05-.793.075-1.158.075h-7.962l.025.249h.299c.431 0 .804.153 1.12.46.314.307.472.676.472 1.107v13.785c-.016.431-.179.8-.485 1.107-.307.307-.677.46-1.107.46h-.324v.25h11.098z" transform="translate(-178 -140) translate(178 140)"/>
            </g>
        </g>
    </g>
</svg>
