<svg xmlns="http://www.w3.org/2000/svg" width="170" height="21" viewBox="0 0 170 21">
    <g fill="none" fill-rule="evenodd">
        <g fill="#E45D44" fill-rule="nonzero">
            <g>
                <path d="M21.646 19.055h2.033V18.8h-.407c-.44 0-.838-.14-1.194-.42-.356-.279-.576-.673-.66-1.181h-.003L19.385.915h-.229L11.99 15.4 4.65.915h-.23L2.43 17.252l-.019.113c-.078.376-.242.682-.494.919l-.113.097c-.356.28-.762.42-1.22.42H.178v.254h5.056v-.229h-.381c-.271 0-.505-.114-.7-.343-.194-.229-.291-.479-.291-.75v-.013l1.07-11.258 6.5 13h.255c.034-.374.123-.763.267-1.17.143-.406.288-.758.432-1.054l.216-.444 5.136-10.506 1.088 11.431v.015c0 .232-.068.449-.206.65l-.073.1c-.187.228-.424.342-.712.342h-.38v.229h4.191zm13.186.355c1.898 0 3.553-.38 4.967-1.143 1.414-.762 2.515-1.838 3.303-3.226.787-1.39 1.181-3.015 1.181-4.878 0-1.864-.394-3.49-1.181-4.878-.788-1.39-1.89-2.465-3.303-3.227-1.414-.762-3.07-1.143-4.967-1.143-1.863 0-3.501.38-4.916 1.143-1.414.762-2.515 1.838-3.303 3.227-.788 1.389-1.181 3.014-1.181 4.878 0 1.863.393 3.489 1.181 4.878.788 1.389 1.889 2.464 3.303 3.226s3.053 1.143 4.916 1.143zm0-.863c-1.338 0-2.511-.347-3.519-1.042-1.008-.695-1.79-1.668-2.35-2.922-.559-1.253-.838-2.727-.838-4.42 0-1.694.28-3.168.838-4.421.56-1.254 1.342-2.227 2.35-2.922 1.009-.695 2.181-1.042 3.519-1.042 1.372 0 2.557.347 3.557 1.042 1 .695 1.778 1.668 2.337 2.922.56 1.253.839 2.727.839 4.42 0 1.694-.28 3.168-.839 4.421-.559 1.254-1.338 2.227-2.337 2.922-1 .695-2.185 1.042-3.557 1.042zm32.291.508h2.033V18.8h-.407c-.44 0-.838-.14-1.194-.42-.355-.279-.575-.673-.66-1.181h-.003L64.862.915h-.228L57.467 15.4 50.127.915h-.23l-1.99 16.337-.019.113c-.077.376-.242.682-.493.919l-.114.097c-.356.28-.762.42-1.22.42h-.406v.254h5.056v-.229h-.381c-.27 0-.504-.114-.699-.343-.194-.229-.292-.479-.292-.75v-.013L50.41 6.462l6.5 13h.254c.034-.374.123-.763.267-1.17.144-.406.288-.758.432-1.054l.216-.444 5.137-10.506 1.087 11.431v.015c0 .232-.068.449-.205.65l-.074.1c-.187.228-.423.342-.712.342h-.38v.229h4.191zm14.888 0h.077l1.372-4.472h-.254c-.271.712-.601 1.338-.991 1.88-.39.543-.882.96-1.474 1.258-.593.296-1.33.444-2.21.444h-3.532v-7.444h3.99c.39 0 .722.121.993.362l.099.096c.288.305.431.67.431 1.092v.33h.255V7.979h-.255v.304c0 .424-.143.788-.431 1.093-.289.305-.652.466-1.093.483H75V2.16h5.07l.079.01c.333.062.622.2.868.411l.119.112c.347.356.52.796.52 1.321v.407h.255V.813c-.131.058-.336.116-.616.175l-.146.028c-.356.068-.741.127-1.156.178-.416.05-.81.076-1.182.076h-8.13l.026.254h.305c.44 0 .821.157 1.143.47.321.314.483.691.483 1.131V17.2c-.017.44-.183.818-.496 1.13-.314.314-.69.47-1.13.47h-.33v.255h11.33zm19.03-17.785h-2.109v.254h.483c.44 0 .809.149 1.105.445.296.296.452.665.47 1.105v11.692L87.474.889h-.254l.127.915c.085.61.127 1.363.127 2.261v13.186c0 .423-.153.787-.458 1.092-.304.305-.669.458-1.092.458h-.483v.254h6.047V18.8h-.483c-.423 0-.787-.153-1.092-.458-.305-.305-.458-.669-.458-1.092h-.003l-.018-11.716 13.538 13.875h.228l-.063-.444c-.042-.296-.085-.695-.127-1.194-.042-.5-.064-1.038-.064-1.614V3.074l.011-.144c.038-.33.163-.616.376-.86l.096-.101c.305-.296.67-.445 1.092-.445h.458V1.27h-3.938zm16.158 17.785V18.8h-.33c-.44 0-.818-.157-1.13-.47-.314-.314-.48-.691-.496-1.131V2.109h4.319c.482.015.887.16 1.215.436l.119.11c.347.347.52.792.52 1.334v.38l.255.026V.788c-.131.058-.336.116-.616.174l-.147.029c-.355.067-.74.127-1.156.178-.415.05-.809.076-1.18.076h-9.02c-.356 0-.746-.025-1.169-.076-.423-.051-.809-.11-1.156-.178-.347-.068-.606-.135-.775-.203v3.607l.254-.025v-.381c0-.542.174-.987.521-1.334.347-.347.792-.53 1.334-.546h4.32V17.2c-.016.391-.148.733-.398 1.024l-.098.107c-.314.313-.691.47-1.13.47h-.331v.254h6.275zm12.55 0V18.8h-.304c-.44 0-.822-.157-1.143-.47-.322-.314-.483-.691-.483-1.131V2.16h.622c.197-.002.416-.004.655-.008l.247-.005c.423-.008.83.004 1.22.038.914.034 1.655.377 2.223 1.029.568.652.86 1.562.876 2.731.017.27.013.534-.012.788-.026.254-.064.466-.115.635-.203.762-.512 1.338-.927 1.727-.415.39-.873.652-1.372.788-.5.135-.97.212-1.41.229-.305.016-.572.021-.8.012l-.369-.012v.254c.424.016.813.19 1.169.52.356.33.677.725.965 1.182.051.085.17.275.356.572.187.296.407.647.66 1.054.255.406.513.818.776 1.232.262.415.5.784.711 1.105.212.322.352.543.42.66.32.424.71.819 1.168 1.182.457.365 1 .652 1.626.864.627.212 1.346.318 2.16.318h1.778V18.8c-.474 0-.902-.08-1.283-.242-.381-.16-.737-.38-1.067-.66-.33-.28-.665-.623-1.004-1.03-.254-.287-.546-.651-.876-1.092-.33-.44-.657-.885-.978-1.334-.322-.448-.589-.825-.8-1.13-.213-.305-.318-.466-.318-.483-.271-.373-.593-.754-.966-1.143-.373-.39-.745-.652-1.118-.788.864-.034 1.614-.288 2.249-.762.635-.474 1.13-1.08 1.486-1.816.356-.737.534-1.495.534-2.274 0-.797-.135-1.49-.407-2.084-.27-.593-.639-1.087-1.105-1.486-.466-.398-1.029-.699-1.69-.902-.66-.203-1.371-.305-2.134-.305h-7.47v.254h.331c.44 0 .818.157 1.13.47.314.314.48.691.496 1.131V17.2c-.017.44-.182.818-.495 1.13-.314.314-.691.47-1.13.47h-.331v.255h6.25zm22.841 0h.076l1.372-4.472h-.254c-.27.712-.6 1.338-.99 1.88-.39.543-.882.96-1.474 1.258-.593.296-1.33.444-2.21.444h-3.532v-7.444h3.989c.391 0 .722.121.994.362l.098.096c.288.305.432.67.432 1.092v.33h.254V7.979h-.254v.304c0 .424-.144.788-.432 1.093-.288.305-.652.466-1.092.483h-3.99V2.16h5.07l.08.01c.332.062.621.2.867.411l.12.112c.346.356.52.796.52 1.321v.407h.254V.813c-.13.058-.335.116-.616.175l-.146.028c-.355.068-.74.127-1.156.178-.415.05-.809.076-1.181.076h-8.13l.025.254h.305c.44 0 .822.157 1.143.47.322.314.483.691.483 1.131V17.2c-.017.44-.182.818-.495 1.13-.314.314-.691.47-1.13.47h-.331v.255h11.331zm15.117 0h.076l1.372-4.472h-.254c-.27.712-.601 1.338-.991 1.88-.389.543-.881.96-1.474 1.258-.593.296-1.33.444-2.21.444h-3.531v-7.444h3.988c.392 0 .723.121.994.362l.099.096c.288.305.432.67.432 1.092v.33h.254V7.979h-.254v.304c0 .424-.144.788-.432 1.093-.288.305-.652.466-1.093.483h-3.988V2.16h5.069l.08.01c.332.062.621.2.867.411l.12.112c.346.356.52.796.52 1.321v.407h.254V.813c-.13.058-.336.116-.616.175l-.146.028c-.356.068-.74.127-1.156.178-.415.05-.809.076-1.181.076h-8.13l.025.254h.305c.44 0 .822.157 1.143.47.322.314.483.691.483 1.131V17.2c-.017.44-.183.818-.496 1.13-.313.314-.69.47-1.13.47h-.33v.255h11.33z" transform="translate(-16 -18) translate(16 18)"/>
            </g>
        </g>
    </g>
</svg>
